# Blender 4.0.2
# www.blender.org
mtllib chair2.mtl
o 柱体.001
v 0.111281 0.368092 0.285026
v 0.054270 0.375701 0.279411
v 0.111281 0.353516 0.285026
v 0.206757 0.359499 0.283889
v 0.206757 0.359499 -0.298287
v 0.206757 0.353516 0.283889
v 0.206757 0.353516 -0.298287
v 0.111280 0.353516 -0.299423
v 0.111280 0.368092 -0.299423
v 0.054270 0.353516 -0.293808
v -0.000549 0.353516 -0.277179
v 0.054270 0.375701 -0.293808
v -0.000549 0.382265 -0.277179
v -0.051071 0.386632 -0.250175
v -0.051071 0.353516 -0.250175
v -0.095354 0.386632 -0.213833
v -0.131695 0.386632 -0.169550
v -0.095354 0.353516 -0.213833
v -0.131695 0.353516 -0.169550
v -0.158700 0.353516 -0.119028
v -0.175329 0.353516 -0.064209
v -0.158700 0.386632 -0.119028
v -0.175329 0.386632 -0.064209
v -0.180944 0.386632 -0.007199
v -0.175329 0.386632 0.049812
v -0.180944 0.353516 -0.007199
v -0.175329 0.353516 0.049812
v -0.158700 0.353516 0.104631
v -0.131695 0.353516 0.155153
v -0.158700 0.386632 0.104631
v -0.131695 0.386632 0.155153
v -0.095354 0.386632 0.199435
v -0.051071 0.386632 0.235777
v -0.095354 0.353516 0.199435
v -0.051071 0.353516 0.235777
v -0.000549 0.353516 0.262782
v -0.000549 0.382265 0.262782
v 0.054270 0.353516 0.279411
vn 0.0697 0.9869 0.1453
vn 0.0474 0.9907 0.1274
vn -0.0210 -0.9942 0.1053
vn -0.0045 -0.9945 0.1046
vn 0.0697 0.9869 -0.1453
vn 0.0474 0.9907 -0.1274
vn 0.0245 0.9927 -0.1181
vn 0.0056 0.9943 -0.1063
vn -0.0165 0.9951 -0.0972
vn -0.0337 0.9965 -0.0765
vn -0.0464 0.9975 -0.0527
vn -0.0543 0.9982 -0.0269
vn -0.0570 0.9984 -0.0000
vn -0.0543 0.9982 0.0269
vn -0.0464 0.9975 0.0527
vn -0.0337 0.9965 0.0765
vn -0.0165 0.9951 0.0972
vn 0.0056 0.9943 0.1063
vn 0.0245 0.9927 0.1181
vn 0.2045 0.9618 0.1818
vn 0.2045 0.9618 -0.1818
vn 0.1012 -0.9898 0.1000
vn 0.1012 -0.9898 -0.1000
vn -0.0893 -0.9942 -0.0597
vn -0.0760 -0.9942 -0.0760
vn -0.0597 -0.9942 -0.0893
vn -0.0411 -0.9942 -0.0992
vn -0.0210 -0.9942 -0.1053
vn -0.0045 -0.9945 -0.1046
vn -0.0411 -0.9942 0.0992
vn -0.0597 -0.9942 0.0893
vn -0.0760 -0.9942 0.0760
vn -0.0893 -0.9942 0.0597
vn -0.0992 -0.9942 0.0411
vn -0.1053 -0.9942 0.0210
vn -0.1074 -0.9942 -0.0000
vn -0.1053 -0.9942 -0.0210
vn -0.0992 -0.9942 -0.0411
vt 0.000000 0.000000
vt 0.621688 0.081088
vt 0.621688 0.008316
vt 0.617548 0.008316
vt 0.617548 0.081088
s 1
f 1/1/1 2/1/2 38/1/3 3/1/4
f 9/1/5 12/1/6 13/1/7 14/1/8 16/1/9 17/1/10 22/1/11 23/1/12 24/1/13 25/1/14 30/1/15 31/1/16 32/1/17 33/1/18 37/1/19 2/1/2 1/1/1 4/1/20 5/1/21
f 1/1/1 3/1/4 6/1/22 4/1/20
f 5/2/21 4/3/20 6/4/22 7/5/23
f 19/1/24 18/1/25 15/1/26 11/1/27 10/1/28 8/1/29 7/1/23 6/1/22 3/1/4 38/1/3 36/1/30 35/1/31 34/1/32 29/1/33 28/1/34 27/1/35 26/1/36 21/1/37 20/1/38
f 8/1/29 9/1/5 5/1/21 7/1/23
f 9/1/5 8/1/29 10/1/28 12/1/6
f 12/1/6 10/1/28 11/1/27 13/1/7
f 13/1/7 11/1/27 15/1/26 14/1/8
f 15/1/26 18/1/25 16/1/9 14/1/8
f 16/1/9 18/1/25 19/1/24 17/1/10
f 22/1/11 17/1/10 19/1/24 20/1/38
f 23/1/12 22/1/11 20/1/38 21/1/37
f 24/1/13 23/1/12 21/1/37 26/1/36
f 25/1/14 24/1/13 26/1/36 27/1/35
f 30/1/15 25/1/14 27/1/35 28/1/34
f 31/1/16 30/1/15 28/1/34 29/1/33
f 32/1/17 31/1/16 29/1/33 34/1/32
f 33/1/18 32/1/17 34/1/32 35/1/31
f 37/1/19 33/1/18 35/1/31 36/1/30
f 2/1/2 37/1/19 36/1/30 38/1/3
o 柱体
v 0.174377 0.459631 -0.323977
v 0.174377 0.459631 0.311609
v 0.040259 0.459631 0.305503
v -0.019357 0.459631 0.287419
v -0.074299 0.459631 0.258051
v -0.122456 0.459631 0.218530
v -0.161978 0.459631 0.170372
v -0.191345 0.459631 0.115430
v -0.209430 0.459631 0.055814
v -0.215536 0.459631 -0.006184
v -0.209430 0.459631 -0.068182
v -0.191345 0.459631 -0.127798
v -0.161978 0.459631 -0.182741
v -0.122456 0.459631 -0.230898
v -0.074299 0.459631 -0.270420
v -0.019357 0.459631 -0.299787
v 0.040259 0.459631 -0.317871
v 0.174377 0.459631 -0.291334
v -0.161187 0.459631 0.102938
v -0.099374 0.459631 0.195447
v -0.134836 0.459631 0.152237
v -0.006865 0.459631 0.257260
v -0.056163 0.459631 0.230909
v 0.174377 0.459631 0.278966
v 0.046627 0.459631 0.273487
v -0.182892 0.459631 -0.006184
v -0.161187 0.459631 -0.115306
v -0.177413 0.459631 -0.061814
v -0.099374 0.459631 -0.207816
v -0.006865 0.459631 -0.269628
v -0.056163 0.459631 -0.243278
v -0.134836 0.459631 -0.164605
v 0.046627 0.459631 -0.285855
v -0.177413 0.459631 0.049446
v 0.202438 0.459631 -0.321214
v 0.202438 0.459631 0.308845
v 0.202438 0.459631 -0.288570
v 0.202438 0.459631 0.276202
v 0.174377 0.551858 -0.323977
v 0.202438 0.547413 -0.321214
v 0.174377 0.551858 0.311609
v 0.202438 0.547413 0.308845
v 0.040259 0.573100 0.305503
v -0.019357 0.582542 0.287419
v -0.074299 0.591244 0.258051
v -0.122456 0.598872 0.218530
v -0.161978 0.605131 0.170372
v -0.191345 0.609783 0.115430
v -0.209430 0.612647 0.055814
v -0.215536 0.613614 -0.006184
v -0.209430 0.612647 -0.068182
v -0.191345 0.609783 -0.127798
v -0.161978 0.605131 -0.182741
v -0.122456 0.598872 -0.230898
v -0.074299 0.591244 -0.270420
v -0.019357 0.582542 -0.299787
v 0.040259 0.573100 -0.317871
v 0.174377 0.551858 -0.291334
v 0.202438 0.547413 -0.288570
v 0.174377 0.551858 0.278966
v 0.202438 0.547413 0.276202
v 0.046627 0.572091 0.273487
v -0.006865 0.580564 0.257260
v -0.056163 0.588372 0.230909
v -0.099374 0.595216 0.195447
v -0.134836 0.600832 0.152237
v -0.161187 0.605006 0.102938
v -0.177413 0.607576 0.049446
v -0.182892 0.608444 -0.006184
v -0.177413 0.607576 -0.061814
v -0.161187 0.605006 -0.115306
v -0.134836 0.600832 -0.164605
v -0.099374 0.595216 -0.207816
v -0.056163 0.588372 -0.243278
v -0.006865 0.580564 -0.269628
v 0.046627 0.572091 -0.285855
vn 0.0980 -0.0000 -0.9952
vn 0.0980 -0.0000 0.9952
vn -0.0455 -0.0000 0.9990
vn -0.2903 -0.0000 0.9569
vn -0.4714 -0.0000 0.8819
vn -0.6344 -0.0000 0.7730
vn -0.7730 -0.0000 0.6344
vn -0.8819 -0.0000 0.4714
vn -0.9569 -0.0000 0.2903
vn -0.9952 -0.0000 0.0980
vn -0.9952 -0.0000 -0.0980
vn -0.9569 -0.0000 -0.2903
vn -0.8819 -0.0000 -0.4714
vn -0.7730 -0.0000 -0.6344
vn -0.6344 -0.0000 -0.7730
vn -0.4714 -0.0000 -0.8819
vn -0.2903 -0.0000 -0.9569
vn -0.0455 -0.0000 -0.9990
vn -0.0000 -1.0000 -0.0000
vn -0.0980 -0.0000 0.9952
vn -0.0980 -0.0000 -0.9952
vn 0.0428 -0.0000 -0.9991
vn 0.2903 -0.0000 -0.9569
vn 0.4714 -0.0000 -0.8819
vn 0.6344 -0.0000 -0.7730
vn 0.7730 -0.0000 -0.6344
vn 0.8819 -0.0000 -0.4714
vn 0.9569 -0.0000 -0.2903
vn 0.9952 -0.0000 -0.0980
vn 0.9952 -0.0000 0.0980
vn 0.9569 -0.0000 0.2903
vn 0.8819 -0.0000 0.4714
vn 0.7730 -0.0000 0.6344
vn 0.6344 -0.0000 0.7730
vn 0.4714 -0.0000 0.8819
vn 0.2903 -0.0000 0.9569
vn 0.0428 -0.0000 0.9991
vn 1.0000 -0.0000 -0.0000
vn 0.1564 0.9877 -0.0000
vt 0.985856 0.500000
vt 1.000000 0.500000
vt 1.000000 0.676494
vt 0.985856 0.667989
vt 0.500000 0.676494
vt 0.500000 0.500000
vt 0.514144 0.500000
vt 0.514144 0.667989
vt 0.468750 0.717146
vt 0.468750 0.500000
vt 0.437500 0.735215
vt 0.437500 0.500000
vt 0.406250 0.751868
vt 0.406250 0.500000
vt 0.375000 0.766465
vt 0.375000 0.500000
vt 0.343750 0.500000
vt 0.343750 0.778444
vt 0.312500 0.500000
vt 0.312500 0.787345
vt 0.281250 0.500000
vt 0.281250 0.792826
vt 0.250000 0.500000
vt 0.250000 0.794677
vt 0.218750 0.500000
vt 0.218750 0.792826
vt 0.187500 0.500000
vt 0.187500 0.787345
vt 0.156250 0.500000
vt 0.156250 0.778444
vt 0.125000 0.500000
vt 0.125000 0.766465
vt 0.093750 0.500000
vt 0.093750 0.751868
vt 0.062500 0.500000
vt 0.062500 0.735215
vt 0.031250 0.500000
vt 0.031250 0.717146
vt 0.000000 0.500000
vt 0.000000 0.676494
vt 0.550447 0.383337
vt 0.597726 0.402274
vt 0.570945 0.369641
vt 0.630360 0.070945
vt 0.667590 0.051045
vt 0.658156 0.028269
vt 1.000000 0.705303
vt 1.000000 0.597979
vt 0.984237 0.597979
vt 0.984237 0.700131
vt 0.515763 0.597979
vt 0.500000 0.597979
vt 0.500000 0.705303
vt 0.515763 0.700131
vt 0.468750 0.597979
vt 0.468750 0.728848
vt 0.437500 0.597979
vt 0.437500 0.738707
vt 0.406250 0.597979
vt 0.406250 0.747793
vt 0.375000 0.597979
vt 0.375000 0.755758
vt 0.343750 0.597979
vt 0.343750 0.762294
vt 0.312500 0.597979
vt 0.312500 0.767150
vt 0.281250 0.597979
vt 0.281250 0.770141
vt 0.250000 0.597979
vt 0.250000 0.771151
vt 0.218750 0.597979
vt 0.218750 0.770141
vt 0.187500 0.597979
vt 0.187500 0.767150
vt 0.156250 0.597979
vt 0.156250 0.762294
vt 0.125000 0.597979
vt 0.125000 0.755758
vt 0.093750 0.597979
vt 0.093750 0.747793
vt 0.062500 0.597979
vt 0.062500 0.738707
vt 0.031250 0.597979
vt 0.031250 0.728848
vt 0.000000 0.597979
vt 0.000000 0.705303
vt 0.467302 0.079574
vt 0.400308 0.079574
vt 0.400308 0.083516
vt 0.467302 0.083516
vt 0.467302 0.151711
vt 0.400308 0.151711
vt 0.400308 0.155653
vt 0.467302 0.155653
vt 0.750000 0.465347
vt 0.771192 0.487913
vt 0.771192 0.463260
vt 0.750000 0.490000
vt 0.707988 0.461210
vt 0.703178 0.485388
vt 0.616663 0.449553
vt 0.658156 0.471731
vt 0.630359 0.429055
vt 0.667590 0.448955
vt 0.580294 0.419706
vt 0.528269 0.341844
vt 0.538790 0.292012
vt 0.514612 0.296822
vt 0.551045 0.332410
vt 0.510000 0.250000
vt 0.534653 0.250000
vt 0.514612 0.203178
vt 0.538791 0.207988
vt 0.750000 0.034653
vt 0.771192 0.036740
vt 0.771192 0.012087
vt 0.750000 0.010000
vt 0.707988 0.038790
vt 0.703178 0.014612
vt 0.616663 0.050447
vt 0.597726 0.097726
vt 0.580294 0.080294
vt 0.550447 0.116663
vt 0.528269 0.158156
vt 0.570945 0.130359
vt 0.551045 0.167590
vt 0.498970 0.102294
vt 0.495283 0.103803
vt 0.497267 0.110262
vt 0.450828 0.151077
vt 0.450828 0.155018
vt 0.454259 0.151410
vt 0.454259 0.155352
vt 0.470655 0.154615
vt 0.469877 0.150749
vt 0.477944 0.152431
vt 0.476416 0.148790
vt 0.484660 0.148885
vt 0.482443 0.145608
vt 0.490548 0.144113
vt 0.487726 0.141326
vt 0.495380 0.138298
vt 0.492061 0.136108
vt 0.498970 0.131664
vt 0.495283 0.130155
vt 0.501181 0.124465
vt 0.497267 0.123696
vt 0.501927 0.116979
vt 0.497936 0.116979
vt 0.501181 0.109493
vt 0.495380 0.095660
vt 0.490548 0.089845
vt 0.492061 0.097850
vt 0.484660 0.085073
vt 0.487726 0.092633
vt 0.477944 0.081527
vt 0.482443 0.088351
vt 0.470655 0.079344
vt 0.476416 0.085169
vt 0.454259 0.078606
vt 0.469877 0.083209
vt 0.450828 0.078940
vt 0.454259 0.082548
vt 0.450828 0.082882
s 0
f 73/6/39 39/7/39 77/8/39 78/9/39
f 79/10/40 40/11/40 74/12/40 80/13/40
f 81/14/41 41/15/41 40/11/41 79/10/41
f 82/16/42 42/17/42 41/15/42 81/14/42
f 83/18/43 43/19/43 42/17/43 82/16/43
f 84/20/44 44/21/44 43/19/44 83/18/44
f 45/22/45 44/21/45 84/20/45 85/23/45
f 46/24/46 45/22/46 85/23/46 86/25/46
f 47/26/47 46/24/47 86/25/47 87/27/47
f 48/28/48 47/26/48 87/27/48 88/29/48
f 49/30/49 48/28/49 88/29/49 89/31/49
f 50/32/50 49/30/50 89/31/50 90/33/50
f 51/34/51 50/32/51 90/33/51 91/35/51
f 52/36/52 51/34/52 91/35/52 92/37/52
f 53/38/53 52/36/53 92/37/53 93/39/53
f 54/40/54 53/38/54 93/39/54 94/41/54
f 55/42/55 54/40/55 94/41/55 95/43/55
f 39/44/56 55/42/56 95/43/56 77/45/56
f 51/46/57 67/47/57 70/48/57
f 61/49/57 60/50/57 42/51/57
f 96/52/58 56/53/58 75/54/58 97/55/58
f 76/56/59 62/57/59 98/58/59 99/59/59
f 62/57/60 63/60/60 100/61/60 98/58/60
f 63/60/61 60/62/61 101/63/61 100/61/61
f 60/62/62 61/64/62 102/65/62 101/63/62
f 61/64/63 58/66/63 103/67/63 102/65/63
f 103/67/64 58/66/64 59/68/64 104/69/64
f 104/69/65 59/68/65 57/70/65 105/71/65
f 105/71/66 57/70/66 72/72/66 106/73/66
f 106/73/67 72/72/67 64/74/67 107/75/67
f 107/75/68 64/74/68 66/76/68 108/77/68
f 108/77/69 66/76/69 65/78/69 109/79/69
f 109/79/70 65/78/70 70/80/70 110/81/70
f 110/81/71 70/80/71 67/82/71 111/83/71
f 111/83/72 67/82/72 69/84/72 112/85/72
f 112/85/73 69/84/73 68/86/73 113/87/73
f 113/87/74 68/86/74 71/88/74 114/89/74
f 114/89/75 71/88/75 56/90/75 96/91/75
f 80/92/76 74/93/76 76/94/76 99/95/76
f 97/96/76 75/97/76 73/98/76 78/99/76
f 56/100/57 73/101/57 75/102/57
f 39/103/57 73/101/57 56/100/57
f 71/104/57 39/103/57 56/100/57
f 55/105/57 39/103/57 71/104/57
f 53/106/57 54/107/57 69/108/57
f 54/107/57 55/105/57 68/109/57
f 54/107/57 68/109/57 69/108/57
f 52/110/57 67/47/57 51/46/57
f 53/106/57 69/108/57 52/110/57
f 50/111/57 66/112/57 49/113/57
f 51/46/57 65/114/57 50/111/57
f 50/111/57 65/114/57 66/112/57
f 48/115/57 64/116/57 47/117/57
f 49/113/57 66/112/57 48/115/57
f 64/116/57 72/118/57 47/117/57
f 48/115/57 66/112/57 64/116/57
f 52/110/57 69/108/57 67/47/57
f 55/105/57 71/104/57 68/109/57
f 51/46/57 70/48/57 65/114/57
f 62/119/57 76/120/57 74/121/57
f 62/119/57 74/121/57 40/122/57
f 63/123/57 40/122/57 41/124/57
f 42/51/57 63/123/57 41/124/57
f 61/49/57 42/51/57 43/125/57
f 58/126/57 43/125/57 44/127/57
f 45/128/57 58/126/57 44/127/57
f 46/129/57 59/130/57 45/128/57
f 59/130/57 58/126/57 45/128/57
f 47/117/57 72/118/57 46/129/57
f 72/118/57 57/131/57 46/129/57
f 58/126/57 61/49/57 43/125/57
f 63/123/57 62/119/57 40/122/57
f 57/131/57 59/130/57 46/129/57
f 60/50/57 63/123/57 42/51/57
f 86/132/77 105/133/77 106/134/77
f 97/135/77 78/136/77 96/137/77
f 78/136/77 77/138/77 96/137/77
f 77/138/77 95/139/77 114/140/77
f 95/139/77 94/141/77 113/142/77
f 114/140/77 95/139/77 113/142/77
f 94/141/77 93/143/77 112/144/77
f 93/143/77 92/145/77 111/146/77
f 92/145/77 91/147/77 110/148/77
f 91/147/77 90/149/77 109/150/77
f 110/148/77 91/147/77 109/150/77
f 90/149/77 89/151/77 108/152/77
f 89/151/77 88/153/77 107/154/77
f 88/153/77 87/155/77 107/154/77
f 87/155/77 86/132/77 106/134/77
f 107/154/77 87/155/77 106/134/77
f 86/132/77 85/156/77 105/133/77
f 85/156/77 84/157/77 104/158/77
f 84/157/77 83/159/77 103/160/77
f 83/159/77 82/161/77 102/162/77
f 103/160/77 83/159/77 102/162/77
f 82/161/77 81/163/77 101/164/77
f 81/163/77 79/165/77 100/166/77
f 79/165/77 80/167/77 98/168/77
f 80/167/77 99/169/77 98/168/77
f 85/156/77 104/158/77 105/133/77
f 89/151/77 107/154/77 108/152/77
f 93/143/77 111/146/77 112/144/77
f 111/146/77 92/145/77 110/148/77
f 114/140/77 96/137/77 77/138/77
f 81/163/77 100/166/77 101/164/77
f 79/165/77 98/168/77 100/166/77
f 82/161/77 101/164/77 102/162/77
f 112/144/77 113/142/77 94/141/77
f 84/157/77 103/160/77 104/158/77
f 108/152/77 109/150/77 90/149/77
