# Blender 4.0.2
# www.blender.org
mtllib bed1.mtl
o å¹³é¢
v -0.908240 0.190633 0.262307
v -0.187148 0.213480 0.262307
v -0.908240 0.190633 -0.586282
v -0.187148 0.213480 -0.586282
v -0.898561 0.189242 0.262307
v -0.196685 0.211197 0.262307
v -0.898561 0.189242 -0.586282
v -0.196685 0.211197 -0.586282
v -0.891031 0.272466 0.262307
v -0.891031 0.272466 -0.586282
v -0.206647 0.272175 0.262307
v -0.206647 0.272175 -0.586282
v -0.198318 0.269442 0.262307
v -0.210863 0.280502 0.262307
v -0.206631 0.272196 0.262307
v -0.200918 0.272839 0.262307
v -0.203977 0.275807 0.262307
v -0.207277 0.278446 0.262307
v -0.210863 0.280502 -0.586282
v -0.198318 0.269442 -0.586282
v -0.206631 0.272196 -0.586282
v -0.207277 0.278446 -0.586282
v -0.203977 0.275807 -0.586282
v -0.200918 0.272839 -0.586282
v -0.885028 0.280502 0.262307
v -0.899088 0.266994 0.262307
v -0.891047 0.272486 0.262307
v -0.891370 0.278514 0.262307
v -0.896462 0.273622 0.262307
v -0.899088 0.266994 -0.586282
v -0.885028 0.280502 -0.586282
v -0.891047 0.272486 -0.586282
v -0.896462 0.273622 -0.586282
v -0.891370 0.278514 -0.586282
vn -0.0000 1.0000 -0.0000
vn -0.0000 -0.0000 1.0000
vn -0.9869 -0.1612 -0.0000
vn 0.9959 -0.0901 -0.0000
vn -0.0004 -1.0000 -0.0000
vn -0.1423 -0.9898 -0.0000
vn 0.9807 0.1957 -0.0000
vn 0.2328 -0.9725 -0.0000
vn -0.0000 -0.0000 -1.0000
vn -0.9929 0.1190 -0.0000
vn 0.7941 0.6078 -0.0000
vn 0.6963 0.7177 -0.0000
vn 0.6244 0.7811 -0.0000
vn 0.4975 0.8674 -0.0000
vn -0.2991 0.9542 -0.0000
vn -0.6928 0.7211 -0.0000
vn -0.9297 0.3683 -0.0000
vt 0.144695 0.000000
vt 0.821882 0.000000
vt 0.821882 1.000000
vt 0.144695 1.000000
vt 0.832266 0.000000
vt 0.144695 0.000000
vt 0.132198 0.000000
vt 0.832266 1.000000
vt 1.000000 1.000000
vt 1.000000 0.000000
vt 0.000000 0.000000
vt 0.000000 1.000000
vt 0.132198 1.000000
vt 0.859945 0.000000
vt 0.859945 1.000000
vt 0.132198 1.000000
vt 0.144695 1.000000
vt 0.112328 0.000000
vt 0.112328 1.000000
vt 0.859945 1.000000
vt 0.112328 1.000000
vt 0.850345 0.000000
vt 0.841508 0.000000
vt 0.833318 0.000000
vt 0.826356 0.000000
vt 0.825483 1.000000
vt 0.828799 1.000000
vt 0.831871 1.000000
vt 0.834483 1.000000
vt 0.850345 1.000000
vt 0.825483 0.000000
vt 0.138325 0.000000
vt 0.132198 0.000000
vt 0.133209 0.000000
vt 0.130572 0.000000
vt 0.122457 1.000000
vt 0.130591 1.000000
vt 0.134784 1.000000
vt 0.138325 1.000000
vt 0.122457 0.000000
vt 0.112328 0.000000
s 0
f 25/1/1 14/2/1 19/3/1 31/4/1
f 15/5/2 14/2/2 25/6/2 27/7/2 9/7/2 11/5/2
f 11/5/3 12/8/3 8/9/3 6/10/3
f 5/11/4 7/12/4 10/13/4 9/7/4
f 9/7/5 10/13/5 12/8/5 11/5/5
f 1/11/6 3/12/6 7/12/6 5/11/6
f 13/14/7 2/10/7 4/9/7 20/15/7
f 4/9/8 2/10/8 6/10/8 8/9/8
f 32/16/9 31/17/9 19/3/9 21/8/9 12/8/9 10/13/9
f 1/11/10 26/18/10 30/19/10 3/12/10
f 21/8/9 20/20/9 4/9/9 8/9/9 12/8/9
f 3/12/9 30/21/9 32/13/9 10/13/9 7/12/9
f 13/14/2 16/22/2 15/5/2
f 16/22/2 17/23/2 15/5/2
f 17/23/2 18/24/2 15/5/2
f 18/24/2 14/25/2 15/5/2
f 19/3/9 22/26/9 21/8/9
f 22/26/9 23/27/9 21/8/9
f 23/27/9 24/28/9 21/8/9
f 24/28/9 20/29/9 21/8/9
f 13/14/11 20/15/11 24/30/11 16/22/11
f 16/22/12 24/30/12 23/8/12 17/5/12
f 17/5/13 23/8/13 22/26/13 18/31/13
f 18/31/14 22/26/14 19/3/14 14/2/14
f 2/10/2 13/14/2 15/5/2 11/5/2 6/10/2
f 25/1/2 28/32/2 27/33/2
f 28/32/2 29/34/2 27/33/2
f 29/34/2 26/35/2 27/33/2
f 30/19/9 33/36/9 32/16/9
f 33/36/9 34/37/9 32/16/9
f 34/37/9 31/38/9 32/16/9
f 25/1/15 31/4/15 34/39/15 28/32/15
f 28/32/16 34/39/16 33/36/16 29/40/16
f 29/40/17 33/36/17 30/19/17 26/18/17
f 27/33/2 26/41/2 1/11/2 5/11/2 9/7/2
