# Blender 4.0.2
# www.blender.org
mtllib computer2.mtl
o Monitor
v 0.196895 0.455052 -0.793657
v 0.781473 0.455052 -0.793657
v 0.233141 0.455052 -0.801234
v 0.284349 0.455052 -0.812281
v 0.335558 0.455052 -0.822649
v 0.386767 0.455052 -0.831318
v 0.437975 0.455052 -0.837268
v 0.489184 0.455052 -0.839478
v 0.540393 0.455052 -0.837268
v 0.591601 0.455052 -0.831318
v 0.642810 0.455052 -0.822649
v 0.694019 0.455052 -0.812281
v 0.745227 0.455052 -0.801234
v 0.745227 0.608389 -0.801234
v 0.694019 0.608389 -0.812281
v 0.642810 0.608389 -0.822649
v 0.591601 0.608389 -0.831318
v 0.540393 0.608389 -0.837268
v 0.489184 0.608389 -0.839478
v 0.437975 0.608389 -0.837268
v 0.386767 0.608389 -0.831318
v 0.335558 0.608389 -0.822649
v 0.284349 0.608389 -0.812281
v 0.233141 0.608389 -0.801234
v 0.196895 0.608389 -0.793657
v 0.781473 0.608389 -0.793657
vn 0.2045 -0.0000 0.9789
vn 0.2077 -0.0000 0.9782
vn 0.1814 -0.0000 0.9834
vn 0.1370 -0.0000 0.9906
vn 0.0681 -0.0000 0.9977
vn -0.0000 -0.0000 1.0000
vn -0.0681 -0.0000 0.9977
vn -0.1370 -0.0000 0.9906
vn -0.1814 -0.0000 0.9834
vn -0.2045 -0.0000 0.9789
vn -0.2077 -0.0000 0.9782
vn -0.2046 -0.0000 0.9788
vn 0.2046 -0.0000 0.9788
vt 0.148758 -0.008899
vt 0.148759 0.998548
vt 0.061132 0.998548
vt 0.061131 -0.008899
vt 0.236385 -0.008899
vt 0.236386 0.998547
vt 0.324012 -0.008899
vt 0.324013 0.998547
vt 0.411639 -0.008899
vt 0.411639 0.998547
vt 0.499266 -0.008899
vt 0.499267 0.998548
vt 0.586893 -0.008899
vt 0.586893 0.998548
vt 0.674519 -0.008899
vt 0.674519 0.998547
vt 0.762145 -0.008899
vt 0.762146 0.998548
vt 0.849773 -0.008899
vt 0.849773 0.998547
vt 0.937400 -0.008899
vt 0.937400 0.998547
vt 0.999422 -0.008899
vt 0.999422 0.997069
vt -0.000891 0.997069
vt -0.000892 -0.008899
s 1
usemtl Material.031
f 4/1/1 23/2/1 24/3/2 3/4/2
f 5/5/3 22/6/3 23/2/1 4/1/1
f 6/7/4 21/8/4 22/6/3 5/5/3
f 7/9/5 20/10/5 21/8/4 6/7/4
f 8/11/6 19/12/6 20/10/5 7/9/5
f 9/13/7 18/14/7 19/12/6 8/11/6
f 10/15/8 17/16/8 18/14/7 9/13/7
f 11/17/9 16/18/9 17/16/8 10/15/8
f 12/19/10 15/20/10 16/18/9 11/17/9
f 13/21/11 14/22/11 15/20/10 12/19/10
f 2/23/12 26/24/12 14/22/11 13/21/11
f 3/4/2 24/3/2 25/25/13 1/26/13
