# Blender 4.0.2
# www.blender.org
mtllib wall1.mtl
o Wall
v -1.000000 0.050001 -0.900033
v -1.000000 1.411117 -0.900033
v -0.899110 1.411117 -0.900033
v -0.899110 0.050001 -0.900033
v -1.000000 0.050001 0.999999
v -1.000000 1.411117 0.999999
v -0.899110 0.050001 0.999999
v -0.899110 1.411117 0.999999
v -1.000000 1.434906 -0.900033
v -0.899110 1.434906 -0.900033
v -1.000000 1.434906 0.999999
v -0.899110 1.434906 0.999999
v -0.899110 1.411117 -0.900033
v -0.899110 1.411117 0.999999
v -0.899110 1.434906 -0.900033
v -0.899110 1.434906 0.999999
v -0.899110 1.411117 -0.900033
v -0.899110 1.411117 0.999999
v -0.899110 1.434906 -0.900033
v -0.899110 1.434906 0.999999
v -0.899110 1.411117 0.999999
v -0.899110 1.411117 -0.900033
v -0.899110 1.434906 -0.900033
v -0.899110 1.434906 0.999999
v -0.899110 1.411117 -0.900033
v -0.899110 1.411117 0.999999
v -0.899110 1.434906 -0.900033
v -0.899110 1.434906 0.999999
v -0.839110 1.411117 -0.900033
v -0.839110 1.411117 0.999999
v -0.839110 1.434906 -0.900033
v -0.839110 1.434906 0.999999
v -1.000000 0.050001 0.458444
v -1.000000 1.411117 0.458444
v -0.899110 1.411117 0.458444
v -0.899110 0.050001 0.458444
v -1.000000 1.434906 0.458444
v -0.899110 1.434906 0.458444
v -0.899110 1.411117 0.458444
v -0.899110 1.434906 0.458444
v -0.899110 1.411117 0.458444
v -0.899110 1.434906 0.458444
v -0.899110 1.411117 0.458444
v -0.899110 1.434906 0.458444
v -0.899110 1.411117 0.458444
v -0.899110 1.434906 0.458444
v -0.839110 1.411117 0.458444
v -0.839110 1.434906 0.458444
v -1.000000 1.168885 -0.900033
v -0.899110 1.168885 -0.900033
v -1.000000 1.168884 0.999999
v -0.899110 1.168884 0.999999
v -0.899110 1.168885 0.458444
v -1.000000 1.168885 0.458444
v -1.000000 1.411117 -0.571887
v -0.899110 1.411117 -0.571887
v -1.000000 1.434906 -0.571887
v -0.899110 1.434906 -0.571887
v -0.899110 1.411117 -0.571887
v -0.899110 1.434906 -0.571887
v -0.899110 1.411117 -0.571887
v -0.899110 1.434906 -0.571887
v -0.899110 1.434906 -0.571887
v -0.899110 1.434906 -0.571887
v -0.839110 1.434906 -0.571887
v -1.000000 0.050001 -0.571887
v -0.899110 0.050001 -0.571887
v -0.899110 1.411117 -0.571887
v -0.899110 1.411117 -0.571887
v -0.839110 1.411117 -0.571887
v -1.000000 1.168885 -0.571887
v -0.899110 1.168885 -0.571887
v -0.899110 0.464402 -0.900033
v -0.899110 0.464402 0.999999
v -0.899110 0.464402 0.458444
v -1.000000 0.464402 -0.900033
v -1.000000 0.464402 0.999999
v -1.000000 0.464402 0.458444
v -0.899110 0.464402 -0.571887
v -1.000000 0.464402 -0.571887
vn -1.0000 -0.0000 -0.0000
vn -0.7071 -0.7071 -0.0000
vn -0.0499 -0.0499 0.9975
vn -0.0499 0.0001 0.9988
vn -0.0000 0.0167 0.9999
vn 0.2425 -0.0000 0.9701
vn -0.0000 -0.0000 1.0000
vn 0.0499 -0.0000 0.9988
vn 0.0499 -0.0499 0.9975
vn 0.7071 -0.7071 -0.0000
vn 1.0000 -0.0000 -0.0000
vn 0.0499 -0.0001 0.9988
vn -0.0000 0.0499 0.9988
vn -0.7071 0.7071 -0.0000
vn -0.0499 0.0499 0.9975
vn -0.0499 -0.0000 0.9988
vn -0.0000 -0.0000 -0.0000
vn 0.7071 -0.0000 0.7071
vn -0.0000 -0.0000 -1.0000
vn 0.0500 0.0499 0.9975
vn 0.7071 0.7071 -0.0000
vn 0.8517 0.5241 -0.0000
vn 0.4680 0.4680 0.7496
vn 0.0499 0.0003 0.9988
vn -0.0000 0.7071 0.7071
vn 0.5565 -0.5875 0.5875
vn 0.5565 -0.0000 0.8308
vn -0.3086 -0.6991 0.6450
vn -0.2627 0.0658 0.9626
vt 0.625000 0.076114
vt 0.625000 0.000000
vt 0.862389 0.500000
vt -nan -nan
vt -nan -nan
vt 0.875000 0.750000
vt 0.862389 0.750000
vt 0.625000 1.000000
vt 0.625000 0.987389
vt -nan -nan
vt -nan -nan
vt -nan -nan
vt -nan -nan
vt 0.625000 0.250000
vt 0.625000 0.262611
vt 0.875000 0.500000
vt -nan -nan
vt -nan -nan
vt -nan -nan
vt -nan -nan
vt -nan -nan
vt -nan -nan
vt -nan -nan
vt -nan -nan
vt -nan -nan
vt -nan -nan
vt -nan -nan
vt -nan -nan
vt -nan -nan
vt -nan -nan
vt -nan -nan
vt -nan -nan
vt -nan -nan
vt -nan -nan
vt -nan -nan
vt -nan -nan
vt -nan -nan
vt -nan -nan
vt -nan -nan
vt -nan -nan
vt -nan -nan
vt -nan -nan
vt -nan -nan
vt -nan -nan
vt -nan -nan
vt -nan -nan
vt -nan -nan
vt -nan -nan
vt -nan -nan
vt -nan -nan
vt -nan -nan
vt -nan -nan
vt -nan -nan
vt -nan -nan
vt -nan -nan
vt -nan -nan
vt -nan -nan
vt -nan -nan
vt -nan -nan
vt -nan -nan
vt -nan -nan
vt -nan -nan
vt -nan -nan
vt -nan -nan
vt -nan -nan
vt -nan -nan
vt -nan -nan
vt -nan -nan
vt -nan -nan
vt -nan -nan
vt 0.625000 0.205508
vt -nan -nan
vt -nan -nan
vt -nan -nan
vt -nan -nan
vt 0.875000 0.544492
vt -nan -nan
vt -nan -nan
vt -nan -nan
vt -nan -nan
vt -nan -nan
vt -nan -nan
vt -nan -nan
vt -nan -nan
vt -nan -nan
vt -nan -nan
vt -nan -nan
vt -nan -nan
vt -nan -nan
vt -nan -nan
vt -nan -nan
vt -nan -nan
vt -nan -nan
vt -nan -nan
vt -nan -nan
vt -nan -nan
vt -nan -nan
vt -nan -nan
vt -nan -nan
vt -nan -nan
vt -nan -nan
vt -nan -nan
vt -nan -nan
vt -nan -nan
vt -nan -nan
vt -nan -nan
vt -nan -nan
vt -nan -nan
vt -nan -nan
vt -nan -nan
vt -nan -nan
vt -nan -nan
vt -nan -nan
vt -nan -nan
vt -nan -nan
vt -nan -nan
vt -nan -nan
vt -nan -nan
vt -nan -nan
vt -nan -nan
vt -nan -nan
vt -nan -nan
vt -nan -nan
vt -nan -nan
vt -nan -nan
vt -nan -nan
s 1
usemtl Material.001
f 78/1/1 33/2/2 5/2/3 77/1/4
f 12/3/5 8/3/6 14/3/7 16/3/7
f 74/4/8 77/5/4 5/6/3 7/7/9
f 33/8/2 36/9/10 7/9/9 5/8/3
f 53/10/11 35/11/8 8/3/6 52/12/12
f 38/13/13 37/14/14 11/14/15 12/15/5
f 6/16/16 8/3/6 12/3/5 11/16/15
f 34/14/1 6/14/16 11/14/15 37/14/14
f 40/17/17 16/15/7 20/15/17 42/18/7
f 16/3/7 14/3/7 18/3/7 20/3/17
f 38/19/13 12/15/5 16/15/7 40/20/17
f 56/21/12 3/3/18 13/3/19 59/22/7
f 68/23/17 22/3/7 25/3/17 69/24/17
f 46/25/13 28/3/5 32/3/20 48/3/21
f 59/26/7 13/3/19 17/3/19 61/27/7
f 44/28/17 24/3/7 28/3/5 46/29/13
f 41/30/7 43/31/17 21/3/7 18/3/7
f 62/32/7 63/33/17 23/3/7 19/3/7
f 18/3/7 21/3/7 24/3/7 20/3/17
f 24/3/7 21/3/7 26/3/17 28/3/5
f 70/34/11 29/3/22 31/3/23 65/35/21
f 28/3/5 26/3/17 30/3/24 32/3/20
f 30/3/24 47/3/11 48/3/21 32/3/20
f 20/3/17 24/3/7 44/36/17 42/37/7
f 61/38/7 68/39/17 43/40/17 41/41/7
f 63/42/17 44/43/17 46/44/13 64/45/25
f 14/3/7 39/46/7 41/47/7 18/3/7
f 64/48/25 46/49/13 48/3/21 65/50/21
f 21/3/7 43/51/17 45/52/17 26/3/17
f 8/3/6 35/53/8 39/54/7 14/3/7
f 58/55/13 38/56/13 40/57/17 60/58/7
f 60/59/7 40/60/17 42/61/7 62/62/7
f 55/14/1 34/14/1 37/14/14 57/63/14
f 58/64/13 57/65/14 37/14/14 38/66/13
f 72/67/11 56/68/12 35/69/8 53/70/11
f 66/8/2 67/9/10 36/9/10 33/8/2
f 80/1/1 66/2/2 33/2/2 78/1/1
f 55/14/1 71/71/1 54/71/1 34/14/1
f 75/72/11 53/73/11 52/74/12 74/75/8
f 8/3/6 6/16/16 51/76/16 52/77/12
f 34/14/1 54/71/1 51/71/16 6/14/16
f 73/78/26 50/79/27 72/80/11 79/81/11
f 2/14/1 49/71/1 71/71/1 55/14/1
f 76/1/1 1/2/2 66/2/2 80/1/1
f 1/8/2 4/9/28 67/9/10 66/8/2
f 50/82/27 3/3/18 56/83/12 72/84/11
f 10/15/29 9/14/14 57/85/14 58/86/13
f 2/14/1 55/14/1 57/87/14 9/14/14
f 15/15/7 60/88/7 62/89/7 19/15/7
f 10/15/29 58/90/13 60/91/7 15/15/7
f 27/3/25 64/92/25 65/93/21 31/3/23
f 23/3/7 63/94/17 64/95/25 27/3/25
f 17/3/19 22/3/7 68/96/17 61/97/7
f 47/3/11 70/98/11 65/99/21 48/3/21
f 42/100/7 44/101/17 63/102/17 62/103/7
f 39/104/7 59/105/7 61/106/7 41/107/7
f 43/108/17 68/109/17 69/110/17 45/111/17
f 35/112/8 56/113/12 59/114/7 39/115/7
f 49/71/1 76/1/1 80/1/1 71/71/1
f 4/7/28 73/116/26 79/117/11 67/118/10
f 36/7/10 75/119/11 74/120/8 7/7/9
f 67/121/10 79/122/11 75/123/11 36/7/10
f 52/124/12 51/76/16 77/125/4 74/126/8
f 54/71/1 78/1/1 77/1/4 51/71/16
o Wall.001
v -1.000000 0.050001 -1.000033
v -1.000000 0.050001 -0.900033
v -1.000000 1.411117 -1.000033
v -1.000000 1.411117 -0.900033
v 1.000000 0.050001 -1.000033
v 1.000000 0.050001 -0.900033
v 1.000000 1.411117 -1.000033
v 1.000000 1.411117 -0.900033
v -0.899110 1.411117 -1.000033
v -0.899110 1.411117 -0.900033
v -0.899110 0.050001 -1.000033
v -0.899110 0.050001 -0.900033
v -1.000000 1.434906 -0.900033
v -1.000000 1.434906 -1.000033
v -0.899110 1.434906 -1.000033
v -0.899110 1.434906 -0.900033
v 1.000000 1.434906 -0.900033
v 1.000000 1.434906 -1.000033
v -0.899110 1.411117 -0.900033
v 1.000000 1.411117 -0.900033
v 1.000000 1.434906 -0.900033
v -0.899110 1.434906 -0.900033
v -0.899110 1.411117 -0.900033
v 1.000000 1.411117 -0.900033
v 1.000000 1.434906 -0.900033
v -0.899110 1.434906 -0.900033
v -0.899110 1.411117 -0.900033
v -0.899110 1.434906 -0.900033
v -0.838929 1.411117 -0.900033
v 0.999566 1.411117 -0.900033
v 1.000000 1.434906 -0.900033
v -0.899110 1.434906 -0.900033
v -0.899110 1.411117 -0.900033
v -0.899110 1.434906 -0.900033
v -0.839110 1.411117 -0.900033
v -0.839110 1.434906 -0.900033
v 0.999566 1.411117 -0.840033
v -0.838929 1.411117 -0.840033
v 1.000000 1.434906 -0.840033
v -0.899110 1.434906 -0.840033
v -1.000000 1.168885 -1.000033
v -1.000000 1.168885 -0.900033
v 1.000000 1.168885 -1.000033
v 1.000000 1.168885 -0.900033
v -0.899110 1.168885 -0.900033
v -0.899110 1.168885 -1.000033
v -1.000000 0.464402 -1.000033
v 1.000000 0.464402 -0.900033
v -0.899110 0.464402 -0.900033
v -0.899110 0.464402 -1.000033
v -1.000000 0.464402 -0.900033
v 1.000000 0.464402 -1.000033
vn -0.0499 -0.0001 -0.9988
vn -1.0000 -0.0000 -0.0000
vn -0.0499 -0.0000 -0.9988
vn -0.0000 -0.0000 -1.0000
vn -0.0499 0.0499 -0.9975
vn -0.0000 0.0499 -0.9988
vn 0.0499 0.0001 -0.9988
vn 0.0499 -0.0000 0.9988
vn 0.0499 -0.0500 0.9975
vn 0.0499 -0.0499 -0.9975
vn -0.0002 -0.0499 -0.9988
vn 0.8352 -0.1267 0.5352
vn -0.7071 -0.7071 -0.0000
vn -0.0499 -0.0499 -0.9975
vn 0.5875 0.5875 0.5565
vn 0.0333 -0.0001 0.9994
vn 0.0499 -0.0000 -0.9988
vn 0.0499 0.0500 -0.9975
vn 0.0250 0.0250 0.9994
vn -0.0000 0.8944 0.4472
vn -0.7071 0.7071 -0.0000
vn -0.0000 -0.0000 1.0000
vn 0.3956 -0.0000 0.9184
vn -0.0092 0.0018 1.0000
vn -0.0105 -0.0264 -0.9996
vn -0.0104 -0.0264 0.9996
vn -0.0765 0.0146 0.9970
vn 0.0494 -0.0009 -0.9988
vn 0.0250 0.0245 0.9994
vn 0.4400 0.7607 -0.4772
vn 0.4732 -0.7427 0.4737
vn -0.4198 -0.4198 -0.8047
vn -0.5241 -0.0000 -0.8517
vn 0.0494 -0.0006 0.9988
vn 0.0505 0.0495 0.9975
vn 0.8308 -0.0000 0.5565
vt 0.375000 0.205508
vt 0.625000 0.205508
vt 0.625000 0.250000
vt 0.375000 0.250000
vt 0.137611 0.500000
vt 0.125000 0.500000
vt 0.375000 0.673886
vt -nan -nan
vt 0.625000 0.750000
vt 0.375000 0.750000
vt 0.375000 0.987389
vt 0.625000 0.987389
vt 0.625000 1.000000
vt 0.375000 1.000000
vt 0.137611 0.673886
vt 0.137611 0.750000
vt -nan -nan
vt -nan -nan
vt 0.862389 0.750000
vt 0.125000 0.673886
vt 0.125000 0.750000
vt 0.625000 0.500000
vt 0.375000 0.500000
vt 0.375000 0.262611
vt 0.625000 0.262611
vt 0.862389 0.500000
vt 0.137611 0.544492
vt 0.125000 0.544492
vt -nan -nan
vt 0.625000 0.544492
vt 0.375000 0.544492
vt 0.375000 0.076114
vt 0.625000 0.076114
vt 0.375000 0.000000
vt 0.625000 0.000000
vt -nan -nan
vt -nan -nan
vt -nan -nan
vt -nan -nan
s 1
usemtl Material.001
f 121/127/30 122/128/31 84/129/31 83/130/32
f 89/131/33 83/132/32 94/132/34 95/131/35
f 132/133/36 128/134/37 86/135/38 85/136/39
f 91/137/40 92/138/41 82/139/42 81/140/43
f 130/141/33 132/133/36 85/136/39 91/142/40
f 128/143/37 129/144/44 92/145/41 86/135/38
f 127/146/32 130/141/33 91/142/40 81/147/43
f 85/136/39 86/135/38 92/138/41 91/137/40
f 88/148/45 87/149/46 98/149/47 97/148/48
f 95/150/35 96/151/49 97/148/48 98/149/47
f 94/130/34 93/129/50 96/151/49 95/150/35
f 97/148/48 96/151/49 102/151/51 101/148/51
f 83/130/32 84/129/31 93/129/50 94/130/34
f 87/149/46 89/131/33 95/131/35 98/149/47
f 88/148/45 97/148/48 101/148/51 100/148/51
f 90/152/52 88/148/45 100/148/51 99/152/33
f 99/152/33 100/148/51 104/148/51 103/152/33
f 101/148/51 102/151/51 106/151/51 105/148/51
f 100/148/51 101/148/51 105/148/51 104/148/51
f 106/152/51 108/152/51 107/152/51 103/152/33
f 112/152/53 109/152/54 118/152/55 120/152/56
f 104/148/51 110/148/57 109/152/54 103/152/33
f 105/148/51 111/148/58 110/148/57 104/148/51
f 106/152/51 112/152/53 111/148/58 105/148/51
f 103/152/33 109/152/54 112/152/53 106/152/51
f 107/152/51 108/152/51 114/152/59 113/152/60
f 113/152/60 114/152/59 116/152/61 115/152/62
f 118/152/55 117/148/63 119/148/64 120/152/56
f 110/148/57 111/148/58 119/148/64 117/148/63
f 111/148/58 112/152/53 120/152/56 119/148/64
f 83/132/32 89/131/33 126/153/33 121/154/30
f 88/148/45 90/152/52 125/155/65 124/156/37
f 89/131/33 87/149/46 123/157/46 126/153/33
f 87/149/46 88/148/45 124/156/37 123/157/46
f 127/158/32 131/159/31 122/128/31 121/127/30
f 81/160/43 82/161/42 131/159/31 127/158/32
f 121/154/30 126/153/33 130/141/33 127/146/32
f 124/156/37 125/162/65 129/163/44 128/164/37
f 126/153/33 123/157/46 132/133/36 130/141/33
f 123/157/46 124/156/37 128/165/37 132/133/36
