# Blender 4.0.2
# www.blender.org
mtllib wall3.mtl
o Cube.002
v -1.034492 0.493655 0.416921
v -1.034492 1.140681 0.416921
v -1.034492 0.493655 -0.528251
v -1.034492 1.140681 -0.528251
v -0.889363 0.493226 0.417548
v -0.889363 1.141110 0.417548
v -0.889363 0.493226 -0.528878
v -0.889363 1.141110 -0.528878
v -1.034492 0.493655 0.027607
v -1.034492 1.140681 0.027607
v -0.889363 0.493226 0.026980
v -0.889363 1.141110 0.026980
v -1.034492 1.140681 -0.131845
v -0.889363 0.493226 -0.131218
v -1.034492 0.493655 -0.131845
v -0.889363 1.141110 -0.131218
v -0.889363 1.170627 -0.571995
v -0.889363 0.463709 -0.571995
v -0.889363 0.463709 -0.088101
v -0.889363 1.170627 -0.016137
v -0.889363 1.170627 0.460665
v -0.889363 0.463709 0.460665
v -0.889363 0.463709 -0.016137
v -0.889363 1.170627 -0.088101
v -0.919987 1.141110 -0.528878
v -0.919987 0.493226 -0.528878
v -0.919987 0.493226 -0.131218
v -0.919987 1.141110 0.026980
v -0.919987 1.141110 0.417548
v -0.919987 0.493226 0.417548
v -0.919987 0.493226 0.026980
v -0.919987 1.141110 -0.131218
v -1.034492 0.463709 -0.016137
v -1.034492 0.463709 0.460665
v -1.034492 1.170627 0.460665
v -1.034492 1.170627 -0.088101
v -1.034492 1.170627 -0.571995
v -1.034492 0.463709 -0.571995
v -1.034492 1.170627 -0.016137
v -1.034492 0.463709 -0.088101
v -0.993120 0.493655 0.027607
v -0.993120 0.493655 0.416921
v -0.993120 1.140681 0.416921
v -0.993120 1.140681 -0.131845
v -0.993120 1.140681 -0.528251
v -0.993120 0.493655 -0.528251
v -0.993120 1.140681 0.027607
v -0.993120 0.493655 -0.131845
vn -0.0000 -1.0000 -0.0000
vn -0.0000 -0.0000 -1.0000
vn -0.0000 1.0000 -0.0000
vn -0.0000 -0.0000 1.0000
vn 1.0000 -0.0000 -0.0000
vn -1.0000 -0.0000 -0.0000
vt 0.614410 0.143443
vt 0.614410 0.239410
vt 0.375000 0.250000
vt 0.625000 0.250000
vt 0.625000 0.500000
vt 0.375000 0.500000
vt 0.385438 0.606709
vt 0.385438 0.510438
vt 0.375000 0.750000
vt 0.625000 0.750000
vt 0.625000 1.000000
vt 0.375000 1.000000
vt 0.125000 0.634569
vt 0.375000 0.634569
vt 0.125000 0.750000
vt 0.625000 0.634569
vt 0.875000 0.634569
vt 0.875000 0.750000
vt 0.625000 0.617147
vt 0.875000 0.617147
vt 0.125000 0.617147
vt 0.375000 0.617147
vt 0.614410 0.010590
vt 0.614410 0.104841
vt 0.614562 0.739562
vt 0.385438 0.739562
vt 0.125000 0.500000
vt 0.875000 0.500000
vt 0.375000 0.115431
vt 0.625000 0.115431
vt 0.625000 0.132853
vt 0.375000 0.132853
vt 0.614562 0.510438
vt 0.614562 0.645008
vt 0.385438 0.645008
vt 0.614562 0.606709
vt 0.385590 0.010590
vt 0.385590 0.104841
vt 0.375000 0.000000
vt 0.625000 0.000000
vt 0.385590 0.239410
vt 0.385590 0.143443
s 0
usemtl Material.019
f 13/1/1 4/2/1 45/2/1 44/1/1
f 38/3/2 37/4/2 17/5/2 18/6/2
f 14/7/3 7/8/3 26/8/3 27/7/3
f 22/9/4 21/10/4 35/11/4 34/12/4
f 33/13/1 23/14/1 22/9/1 34/15/1
f 20/16/3 39/17/3 35/18/3 21/10/3
f 24/19/3 36/20/3 39/17/3 20/16/3
f 40/21/1 19/22/1 23/14/1 33/13/1
f 19/22/5 24/19/5 20/16/5 23/14/5
f 2/23/1 10/24/1 47/24/1 43/23/1
f 6/25/2 5/26/2 30/26/2 29/25/2
f 38/27/1 18/6/1 19/22/1 40/21/1
f 17/5/3 37/28/3 36/20/3 24/19/3
f 33/29/6 39/30/6 36/31/6 40/32/6
f 8/33/5 7/8/5 18/6/5 17/5/5
f 7/8/5 14/7/5 19/22/5 18/6/5
f 6/25/5 12/34/5 20/16/5 21/10/5
f 5/26/5 6/25/5 21/10/5 22/9/5
f 11/35/5 5/26/5 22/9/5 23/14/5
f 12/34/5 11/35/5 23/14/5 20/16/5
f 16/36/5 8/33/5 17/5/5 24/19/5
f 14/7/5 16/36/5 24/19/5 19/22/5
f 8/33/1 16/36/1 32/36/1 25/33/1
f 5/26/3 11/35/3 31/35/3 30/26/3
f 12/34/1 6/25/1 29/25/1 28/34/1
f 7/8/4 8/33/4 25/33/4 26/8/4
f 16/36/2 14/7/2 27/7/2 32/36/2
f 11/35/4 12/34/4 28/34/4 31/35/4
f 1/37/6 9/38/6 33/29/6 34/39/6
f 2/23/6 1/37/6 34/39/6 35/40/6
f 4/2/6 13/1/6 36/31/6 37/4/6
f 3/41/6 4/2/6 37/4/6 38/3/6
f 10/24/6 2/23/6 35/40/6 39/30/6
f 9/38/6 10/24/6 39/30/6 33/29/6
f 15/42/6 3/41/6 38/3/6 40/32/6
f 13/1/6 15/42/6 40/32/6 36/31/6
f 9/38/3 1/37/3 42/37/3 41/38/3
f 15/42/2 13/1/2 44/1/2 48/42/2
f 10/24/4 9/38/4 41/38/4 47/24/4
f 4/2/4 3/41/4 46/41/4 45/2/4
f 1/37/2 2/23/2 43/23/2 42/37/2
f 3/41/3 15/42/3 48/42/3 46/41/3
