# Blender 4.0.2
# www.blender.org
mtllib refrigerator.mtl
o Cube.017
v -8.304787 1.051399 -2.683075
v -8.304787 4.761198 -2.683075
v -8.304787 1.051399 -4.400789
v -8.304787 4.761198 -4.400789
v -6.955103 1.051399 -2.683075
v -6.955103 4.761198 -2.683075
v -6.955103 1.051399 -4.400789
v -6.955103 4.761198 -4.400789
v -8.304787 3.587864 -2.683075
v -8.304787 3.587864 -4.400789
v -6.955103 3.587864 -4.400789
v -6.955103 3.587864 -2.683075
v -8.304787 3.556849 -4.400789
v -6.955103 3.556849 -4.400789
v -6.955103 3.556849 -2.683075
v -8.304787 3.556849 -2.683075
v -6.988091 3.587864 -4.400789
v -6.988091 3.587864 -2.683075
v -6.988091 3.556849 -4.400789
v -6.988091 3.556849 -2.683075
v -8.304787 1.051399 -2.750155
v -8.304787 4.761198 -2.750155
v -6.955103 1.051399 -2.750155
v -6.955103 4.761198 -2.750155
v -6.955103 3.587864 -2.750155
v -8.304787 3.587864 -2.750155
v -8.304787 3.556849 -2.750155
v -6.955103 3.556849 -2.750155
v -6.988091 3.587864 -2.750155
v -6.988091 3.556849 -2.750155
v -8.304787 4.761198 -2.834170
v -6.955103 1.051399 -2.834169
v -8.304787 3.587864 -2.834169
v -8.304787 3.556849 -2.834169
v -8.304787 1.051399 -2.834169
v -6.955103 4.761198 -2.834170
v -6.955103 3.587864 -2.834169
v -6.955103 3.556849 -2.834169
v -6.988091 3.587864 -2.834169
v -6.988091 3.556849 -2.834169
v -8.304787 4.304761 -2.683075
v -8.304787 4.304761 -4.400789
v -6.955103 4.304761 -4.400789
v -6.955103 4.304761 -2.683075
v -6.955103 4.304761 -2.750155
v -8.304787 4.304761 -2.750155
v -6.955103 4.304761 -2.834169
v -8.304787 4.304761 -2.834169
v -8.304787 2.555872 -4.400789
v -6.955103 2.555872 -4.400789
v -6.955103 2.555872 -2.683075
v -8.304787 2.555872 -2.683075
v -6.955103 2.555872 -2.750155
v -8.304787 2.555872 -2.750155
v -6.955103 2.555872 -2.834169
v -8.304787 2.555872 -2.834169
v -6.879242 3.587864 -2.834169
v -6.879242 3.587864 -2.750155
v -6.879242 3.556849 -2.834169
v -6.879242 3.556849 -2.750155
v -6.879242 4.312973 -2.732266
v -6.879242 4.312973 -2.852058
v -6.879242 2.539827 -2.728062
v -6.879242 2.539827 -2.856262
v -6.909586 4.304761 -2.834169
v -6.909586 3.587864 -2.834169
v -6.909586 3.587864 -2.750155
v -6.909586 4.304761 -2.750155
v -6.911540 3.556849 -2.834169
v -6.911540 2.555872 -2.834169
v -6.911540 3.556849 -2.750155
v -6.911540 2.555872 -2.750155
v -8.304787 4.266196 -4.400789
v -6.955103 4.266196 -4.400789
v -6.955103 4.266196 -2.683075
v -6.955103 4.266196 -2.750155
v -8.304787 4.266196 -2.750155
v -6.955103 4.266196 -2.834169
v -8.304787 4.266196 -2.834169
v -8.304787 4.266196 -2.683075
v -6.879242 4.257985 -2.732266
v -6.879242 4.257985 -2.852058
v -6.909586 4.266196 -2.750155
v -6.909586 4.266196 -2.834169
v -8.304787 3.629823 -4.400789
v -6.955103 3.629823 -4.400789
v -6.955103 3.629823 -2.683075
v -6.955103 3.629823 -2.750155
v -8.304787 3.629823 -2.750155
v -6.955103 3.629823 -2.834169
v -8.304787 3.629823 -2.834169
v -6.879242 3.629823 -2.750155
v -6.879242 3.629823 -2.834169
v -6.909586 3.629823 -2.834169
v -8.304787 3.629823 -2.683075
v -6.909586 3.629823 -2.750155
v -8.304787 3.508922 -2.683075
v -8.304787 3.508922 -4.400789
v -6.955103 3.508922 -4.400789
v -6.955103 3.508922 -2.683075
v -6.955103 3.508922 -2.750155
v -8.304787 3.508922 -2.750155
v -6.955103 3.508922 -2.834169
v -8.304787 3.508922 -2.834169
v -6.879242 3.508922 -2.750155
v -6.879242 3.508922 -2.834169
v -6.911540 3.508922 -2.750155
v -6.911540 3.508922 -2.834169
v -8.304787 2.616889 -4.400789
v -6.955103 2.616889 -4.400789
v -6.955103 2.616890 -2.683075
v -6.955103 2.616890 -2.750155
v -8.304787 2.616890 -2.750155
v -6.955103 2.616890 -2.834169
v -8.304787 2.616890 -2.834169
v -6.879242 2.632935 -2.728062
v -6.879242 2.632935 -2.856262
v -6.911540 2.616890 -2.834169
v -8.304787 2.616890 -2.683075
v -6.911540 2.616890 -2.750155
v -6.943724 3.587864 -2.834169
v -6.943724 3.587864 -2.750155
v -6.943724 4.304761 -2.834169
v -6.943724 4.304761 -2.750155
v -6.943724 4.266196 -2.834169
v -6.943724 4.266196 -2.750155
v -6.943724 3.629823 -2.834169
v -6.943724 3.629823 -2.750155
v -6.945888 2.555872 -2.834169
v -6.945888 3.556849 -2.834169
v -6.945888 3.556849 -2.750155
v -6.945888 2.555872 -2.750155
v -6.945888 3.508922 -2.834169
v -6.945888 3.508922 -2.750155
v -6.945888 2.616890 -2.834169
v -6.945888 2.616890 -2.750155
v -6.943724 4.266196 -2.806791
v -6.943724 3.629823 -2.806791
v -6.945888 3.508922 -2.806791
v -6.945888 2.616890 -2.806790
vn -1.0000 -0.0000 -0.0000
vn -0.9397 0.3419 -0.0000
vn -0.7560 0.2750 -0.5940
vn -0.7863 -0.0000 -0.6178
vn 0.7560 0.2750 -0.5940
vn 0.7863 -0.0000 -0.6178
vn 0.9608 0.1165 0.2516
vn 0.9397 0.3419 -0.0000
vn 0.7560 0.2750 0.5940
vn 0.7863 -0.0000 0.6178
vn -0.7560 0.2750 0.5940
vn -0.7863 -0.0000 0.6178
vn -0.9397 -0.3419 -0.0000
vn 0.9397 -0.3419 -0.0000
vn 0.7560 -0.2750 0.5940
vn -0.7560 -0.2750 0.5940
vn 0.5967 -0.6513 0.4688
vn 0.7560 -0.2750 -0.5940
vn 0.5967 0.6513 0.4688
vn 0.5967 0.6513 -0.4688
vn -0.0000 -0.4202 0.9074
vn -0.0000 -0.4202 -0.9074
vn 0.5967 -0.6513 -0.4688
vn 0.9608 0.1165 -0.2516
vn -0.7560 -0.2750 -0.5940
vn -0.2795 -0.0043 -0.9601
vn -0.2773 -0.0000 -0.9608
vn -0.5078 -0.0000 -0.8614
vn -0.3957 -0.0070 -0.9184
vn 0.9608 -0.1165 -0.2516
vn 0.9608 -0.1165 0.2516
vn -0.1116 0.0040 -0.9937
vn -0.0000 0.4202 -0.9074
vn -0.1671 0.0060 -0.9859
vn -0.0000 0.4202 0.9074
vn -0.0967 -0.0046 0.9953
vn -0.1448 -0.0069 0.9894
vn -0.3213 0.0036 0.9470
vn -0.3191 -0.0000 0.9477
vn -0.5646 -0.0000 0.8254
vn -0.4409 0.0064 0.8975
vn 0.3905 -0.0000 0.9206
vn -0.0000 -0.0000 -1.0000
vn -0.0000 0.2255 -0.9742
vn -0.0000 -0.2255 0.9742
vn 1.0000 -0.0000 -0.0000
vn -0.0000 0.2255 0.9742
vn -0.2795 -0.0043 0.9601
vn -0.2773 -0.0000 0.9608
vn -0.3957 -0.0070 0.9184
vn -0.5078 -0.0000 0.8614
vn -0.0967 -0.0046 -0.9953
vn -0.1448 -0.0069 -0.9894
vn -0.1116 0.0040 0.9937
vn -0.1671 0.0060 0.9859
vn -0.3213 0.0036 -0.9470
vn -0.4409 0.0064 -0.8975
vn -0.3191 -0.0000 -0.9477
vn -0.5646 -0.0000 -0.8254
vn -0.0000 -0.2255 -0.9742
vt 0.594241 0.021991
vt 0.625000 0.021991
vt 0.625000 0.250000
vt 0.594241 0.250000
vt 0.625000 0.500000
vt 0.594241 0.500000
vt 0.594241 0.740237
vt 0.625000 0.740237
vt 0.625000 0.750000
vt 0.594241 0.750000
vt 0.625000 1.000000
vt 0.594241 1.000000
vt 0.125000 0.740237
vt 0.375000 0.740237
vt 0.375000 0.750000
vt 0.125000 0.750000
vt 0.875000 0.740237
vt 0.875000 0.750000
vt 0.543840 0.750000
vt 0.545930 0.750000
vt 0.545930 1.000000
vt 0.543840 1.000000
vt 0.545930 0.740237
vt 0.543840 0.250000
vt 0.545930 0.250000
vt 0.545930 0.500000
vt 0.543840 0.500000
vt 0.543840 0.021991
vt 0.545930 0.021991
vt 0.540610 0.021991
vt 0.540610 0.250000
vt 0.540610 0.500000
vt 0.540610 0.740237
vt 0.543840 0.740237
vt 0.540610 0.750000
vt 0.540610 1.000000
vt 0.543840 0.728010
vt 0.545930 0.728009
vt 0.545930 0.740237
vt 0.540610 0.000000
vt 0.543840 0.000000
vt 0.543840 0.009763
vt 0.540610 0.009763
vt 0.545930 0.000000
vt 0.545930 0.009763
vt 0.625000 0.728009
vt 0.875000 0.728009
vt 0.125000 0.728009
vt 0.375000 0.728010
vt 0.594241 0.728009
vt 0.594241 0.000000
vt 0.625000 0.000000
vt 0.625000 0.009763
vt 0.594241 0.009763
vt 0.125000 0.500000
vt 0.375000 0.500000
vt 0.875000 0.500000
vt 0.540610 0.728010
vt 0.591642 0.009763
vt 0.591642 0.021991
vt 0.591642 0.500000
vt 0.591642 0.728009
vt 0.591642 0.000000
vt 0.591642 0.750000
vt 0.591642 1.000000
vt 0.591642 0.740237
vt 0.591642 0.250000
vt 0.375000 0.009763
vt 0.476385 0.009763
vt 0.476385 0.021991
vt 0.375000 0.021991
vt 0.476385 0.500000
vt 0.476385 0.728009
vt 0.375000 0.000000
vt 0.476385 0.000000
vt 0.476385 0.740237
vt 0.476385 0.750000
vt 0.476385 1.000000
vt 0.375000 1.000000
vt 0.375000 0.250000
vt 0.476385 0.250000
vt 0.540610 0.728010
vt 0.543840 0.728010
vt 0.548758 0.740237
vt 0.480497 0.740237
vt 0.480497 0.740237
vt 0.476385 0.740237
vt 0.594241 0.740237
vt 0.548758 0.021991
vt 0.548758 0.250000
vt 0.548758 0.500000
vt 0.548758 0.750000
vt 0.548758 1.000000
vt 0.548758 0.728009
vt 0.548758 0.000000
vt 0.548758 0.009763
vt 0.540610 0.740237
vt 0.480497 0.728009
vt 0.480497 0.009763
vt 0.480497 0.021991
vt 0.480497 0.500000
vt 0.480497 0.000000
vt 0.480497 0.750000
vt 0.480497 1.000000
vt 0.480497 0.250000
s 1
usemtl Material.025
f 48/1/1 31/2/2 4/3/3 42/4/4
f 42/4/4 4/3/3 8/5/5 43/6/6
f 45/7/7 24/8/8 6/9/9 44/10/10
f 44/10/10 6/9/9 2/11/11 41/12/12
f 21/13/13 23/14/14 5/15/15 1/16/16
f 24/8/8 22/17/2 2/18/11 6/9/9
f 15/19/9 12/20/15 9/21/12 16/22/12
f 25/23/17 12/20/15 18/20/18 29/23/14
f 13/24/4 10/25/4 11/26/18 14/27/5
f 34/28/1 33/29/1 10/25/4 13/24/4
f 104/30/1 34/28/1 13/24/4 98/31/4
f 98/31/4 13/24/4 14/27/5 99/32/6
f 101/33/10 28/34/19 15/19/9 100/35/10
f 100/35/10 15/19/9 16/22/12 97/36/12
f 30/34/8 29/23/14 18/20/18 20/19/5
f 38/37/20 14/27/5 19/27/9 40/37/8
f 12/20/15 15/19/9 20/19/5 18/20/18
f 14/27/5 11/26/18 17/26/15 19/27/9
f 15/19/9 28/34/19 30/34/8 20/19/5
f 40/37/8 39/38/14 29/23/14 30/34/8
f 67/39/21 66/38/22 57/38/22 58/23/21
f 97/40/12 16/41/12 27/42/1 102/43/1
f 16/41/12 9/44/12 26/45/1 27/42/1
f 37/38/23 25/23/17 29/23/14 39/38/14
f 36/46/8 31/47/2 22/17/2 24/8/8
f 35/48/13 32/49/14 23/14/14 21/13/13
f 47/50/24 36/46/8 24/8/8 45/7/7
f 41/51/12 2/52/11 22/53/2 46/54/1
f 43/6/6 8/5/5 36/46/8 47/50/24
f 3/55/25 7/56/18 32/49/14 35/48/13
f 8/5/5 4/57/3 31/47/2 36/46/8
f 11/26/18 37/38/23 39/38/14 17/26/15
f 99/32/6 14/27/5 38/37/20 103/58/6
f 19/27/9 17/26/15 39/38/14 40/37/8
f 28/34/19 38/37/20 40/37/8 30/34/8
f 102/43/1 27/42/1 34/28/1 104/30/1
f 27/42/1 26/45/1 33/29/1 34/28/1
f 46/54/1 22/53/2 31/2/2 48/1/1
f 77/59/1 46/54/1 48/1/1 79/60/1
f 74/61/6 43/6/6 47/50/24 78/62/6
f 80/63/12 41/51/12 46/54/1 77/59/1
f 84/62/26 65/50/27 62/50/28 82/62/29
f 75/64/10 44/10/10 41/12/12 80/65/12
f 76/66/10 45/7/7 44/10/10 75/64/10
f 73/67/4 42/4/4 43/6/6 74/61/6
f 79/60/1 48/1/1 42/4/4 73/67/4
f 21/68/13 54/69/1 56/70/1 35/71/13
f 7/56/18 50/72/6 55/73/30 32/49/14
f 1/74/16 52/75/12 54/69/1 21/68/13
f 32/49/14 55/73/30 53/76/31 23/14/14
f 5/15/15 51/77/10 52/78/12 1/79/16
f 23/14/14 53/76/31 51/77/10 5/15/15
f 3/80/25 49/81/4 50/72/6 7/56/18
f 35/71/13 56/70/1 49/81/4 3/80/25
f 108/82/32 69/83/33 59/37/33 106/58/34
f 69/83/33 71/34/35 60/34/35 59/37/33
f 96/84/36 67/39/21 58/23/21 92/84/37
f 120/85/38 72/76/39 63/76/40 116/86/41
f 128/84/42 122/39/21 67/39/21 96/84/36
f 125/62/43 123/50/44 65/50/27 84/62/26
f 122/39/21 121/38/22 66/38/22 67/39/21
f 136/85/42 132/87/45 72/76/39 120/85/38
f 130/83/33 131/34/35 71/34/35 69/83/33
f 133/82/43 130/83/33 69/83/33 108/82/32
f 126/66/42 128/84/42 138/84/46 137/66/46
f 124/7/47 126/66/42 83/66/48 68/88/49
f 68/88/49 83/66/48 81/66/50 61/7/51
f 91/89/1 79/60/1 73/67/4 85/90/4
f 85/90/4 73/67/4 74/61/6 86/91/6
f 88/84/10 76/66/10 75/64/10 87/92/10
f 87/92/10 75/64/10 80/65/12 95/93/12
f 94/94/52 84/62/26 82/62/29 93/94/53
f 95/95/12 80/63/12 77/59/1 89/96/1
f 86/91/6 74/61/6 78/62/6 90/94/6
f 89/96/1 77/59/1 79/60/1 91/89/1
f 26/45/1 89/96/1 91/89/1 33/29/1
f 11/26/18 86/91/6 90/94/6 37/38/23
f 9/44/12 95/95/12 89/96/1 26/45/1
f 66/38/22 94/94/52 93/94/53 57/38/22
f 12/20/15 87/92/10 95/93/12 9/21/12
f 25/23/17 88/84/10 87/92/10 12/20/15
f 10/25/4 85/90/4 86/91/6 11/26/18
f 33/29/1 91/89/1 85/90/4 10/25/4
f 121/38/22 127/94/43 94/94/52 66/38/22
f 83/66/48 96/84/36 92/84/37 81/66/50
f 134/33/42 136/85/42 140/85/46 139/33/46
f 131/34/35 134/33/42 107/33/54 71/34/35
f 71/34/35 107/33/54 105/97/55 60/34/35
f 118/98/56 108/82/32 106/58/34 117/98/57
f 113/99/1 102/43/1 104/30/1 115/100/1
f 110/101/6 99/32/6 103/58/6 114/98/6
f 119/102/12 97/40/12 102/43/1 113/99/1
f 111/103/10 100/35/10 97/36/12 119/104/12
f 112/85/10 101/33/10 100/35/10 111/103/10
f 109/105/4 98/31/4 99/32/6 110/101/6
f 115/100/1 104/30/1 98/31/4 109/105/4
f 56/70/1 115/100/1 109/105/4 49/81/4
f 49/81/4 109/105/4 110/101/6 50/72/6
f 53/76/31 112/85/10 111/103/10 51/77/10
f 51/77/10 111/103/10 119/104/12 52/78/12
f 52/75/12 119/102/12 113/99/1 54/69/1
f 50/72/6 110/101/6 114/98/6 55/73/30
f 54/69/1 113/99/1 115/100/1 56/70/1
f 70/73/58 118/98/56 117/98/57 64/73/59
f 129/73/60 135/98/43 118/98/56 70/73/58
f 107/33/54 120/85/38 116/86/41 105/97/55
f 76/66/10 88/84/10 128/84/42 126/66/42
f 37/38/23 90/94/6 127/94/43 121/38/22
f 45/7/7 76/66/10 126/66/42 124/7/47
f 90/94/6 78/62/6 125/62/43 127/94/43
f 25/23/17 37/38/23 121/38/22 122/39/21
f 78/62/6 47/50/24 123/50/44 125/62/43
f 47/50/24 45/7/7 124/7/47 123/50/44
f 88/84/10 25/23/17 122/39/21 128/84/42
f 101/33/10 112/85/10 136/85/42 134/33/42
f 55/73/30 114/98/6 135/98/43 129/73/60
f 28/34/19 101/33/10 134/33/42 131/34/35
f 114/98/6 103/58/6 133/82/43 135/98/43
f 103/58/6 38/37/20 130/83/33 133/82/43
f 38/37/20 28/34/19 131/34/35 130/83/33
f 112/85/10 53/76/31 132/87/45 136/85/42
f 53/76/31 55/73/30 129/73/60 132/87/45
