# Blender 4.0.2
# www.blender.org
mtllib tv.mtl
o Cube.027
v 2.882000 0.900000 1.119284
v 2.882000 0.902000 1.121284
v 2.880000 0.902000 1.119284
v 2.882000 1.598000 1.121284
v 2.882000 1.600000 1.119284
v 2.880000 1.598000 1.119284
v 2.882000 0.902000 -0.238716
v 2.882000 0.900000 -0.236716
v 2.880000 0.902000 -0.236716
v 2.882000 1.600000 -0.236716
v 2.882000 1.598000 -0.238716
v 2.880000 1.598000 -0.236716
v 2.898000 0.902000 1.121284
v 2.898000 0.900000 1.119284
v 2.900000 0.901676 1.118847
v 2.898000 1.600000 1.119284
v 2.898000 1.598000 1.121284
v 2.900000 1.598323 1.118847
v 2.898000 0.900000 -0.236716
v 2.898000 0.902000 -0.238716
v 2.900000 0.901676 -0.236280
v 2.898000 1.600000 -0.236716
v 2.900000 1.598323 -0.236280
v 2.898000 1.598000 -0.238716
v 2.882000 0.922000 1.101284
v 2.882000 0.920000 1.099284
v 2.880000 0.918000 1.103284
v 2.882000 1.578000 1.101284
v 2.880000 1.582000 1.103284
v 2.882000 1.580000 1.099284
v 2.882000 1.580000 -0.216716
v 2.880000 1.582000 -0.220716
v 2.882000 1.578000 -0.218716
v 2.882000 0.922000 -0.218716
v 2.880000 0.918000 -0.220716
v 2.882000 0.920000 -0.216716
v 2.888000 0.922000 1.101284
v 2.890000 0.922000 1.099284
v 2.888000 0.920000 1.099284
v 2.890000 1.578000 1.099284
v 2.888000 1.578000 1.101284
v 2.888000 1.580000 1.099284
v 2.890000 0.922000 -0.216716
v 2.888000 0.922000 -0.218716
v 2.888000 0.920000 -0.216716
v 2.888000 1.580000 -0.216716
v 2.888000 1.578000 -0.218716
v 2.890000 1.578000 -0.216716
v 2.902000 1.086031 0.028773
v 2.902000 1.084031 0.030773
v 2.900000 1.082355 0.026336
v 2.902000 1.413968 0.028773
v 2.900000 1.417645 0.026336
v 2.902000 1.415968 0.030773
v 2.902000 1.415968 0.851794
v 2.900000 1.417645 0.856231
v 2.902000 1.413968 0.853794
v 2.902000 1.086031 0.853794
v 2.900000 1.082355 0.856231
v 2.902000 1.084031 0.851794
v 2.943394 1.413968 0.028773
v 2.943394 1.415968 0.030773
v 2.945394 1.417951 0.026740
v 2.945394 1.082049 0.026740
v 2.943394 1.084031 0.030773
v 2.943394 1.086031 0.028773
v 2.943394 1.086031 0.853794
v 2.943394 1.084031 0.851794
v 2.945394 1.082049 0.855828
v 2.943394 1.415968 0.851794
v 2.943394 1.413968 0.853794
v 2.945394 1.417951 0.855828
v 2.947394 1.455635 -0.013956
v 2.945394 1.455653 -0.011923
v 2.947394 1.457635 -0.011956
v 2.947394 1.044364 -0.013956
v 2.947394 1.042364 -0.011956
v 2.945394 1.044347 -0.011923
v 2.947394 1.044364 0.896524
v 2.945394 1.044347 0.894490
v 2.947394 1.042364 0.894524
v 2.947394 1.457635 0.894524
v 2.945394 1.455653 0.894490
v 2.947394 1.455635 0.896524
v 3.000000 1.455635 -0.011956
v 2.998000 1.455635 -0.013956
v 2.998000 1.457635 -0.011956
v 2.998000 1.044364 -0.013956
v 3.000000 1.044364 -0.011956
v 2.998000 1.042364 -0.011956
v 3.000000 1.044364 0.894524
v 2.998000 1.044364 0.896524
v 2.998000 1.042364 0.894524
v 2.998000 1.457635 0.894524
v 2.998000 1.455635 0.896524
v 3.000000 1.455635 0.894524
v 2.880000 0.902000 0.441284
v 2.882000 0.900000 0.441284
v 2.880000 1.598000 0.441284
v 2.882000 1.600000 0.441284
v 2.900000 0.901689 0.441284
v 2.898000 0.900000 0.441284
v 2.900000 1.598311 0.441284
v 2.898000 1.600000 0.441284
v 2.882000 0.920000 0.441284
v 2.880000 0.918000 0.441284
v 2.882000 1.580000 0.441284
v 2.880000 1.582000 0.441284
v 2.890000 0.922000 0.441284
v 2.888000 0.920000 0.441284
v 2.890000 1.578000 0.441284
v 2.888000 1.580000 0.441284
v 2.902000 1.084031 0.441284
v 2.900000 1.082342 0.441284
v 2.902000 1.415968 0.441284
v 2.900000 1.417657 0.441284
v 2.945394 1.082048 0.441284
v 2.943394 1.084031 0.441284
v 2.945394 1.417952 0.441284
v 2.943394 1.415968 0.441284
v 2.947394 1.042364 0.441284
v 2.945394 1.044348 0.441284
v 2.947394 1.457635 0.441284
v 2.945394 1.455652 0.441284
v 3.000000 1.044364 0.441284
v 2.998000 1.042364 0.441284
v 3.000000 1.455635 0.441284
v 2.998000 1.457635 0.441284
vn -0.0000 -0.0000 1.0000
vn -0.0000 -1.0000 -0.0000
vn -0.0000 1.0000 -0.0000
vn -1.0000 -0.0000 -0.0000
vn 1.0000 -0.0000 -0.0000
vn -0.0000 -0.0000 -1.0000
vn -0.5774 -0.5773 0.5774
vn -0.5774 0.5773 0.5774
vn -0.5774 -0.5773 -0.5774
vn -0.5774 0.5773 -0.5774
vn 0.5985 -0.5665 0.5665
vn 0.5985 0.5665 0.5665
vn 0.5985 -0.5665 -0.5665
vn 0.5985 0.5664 -0.5665
vn -0.9045 0.3015 -0.3015
vn -0.9045 -0.3015 -0.3015
vn -0.9045 -0.3015 0.3015
vn -0.9045 0.3015 0.3015
vn 0.9076 -0.2969 -0.2969
vn 0.9076 0.2969 -0.2969
vn 0.9076 0.2969 0.2969
vn 0.9076 -0.2969 0.2969
vn -0.9050 0.3009 -0.3009
vn -0.9050 -0.3009 -0.3009
vn -0.9050 -0.3009 0.3009
vn -0.9050 0.3009 0.3009
vn -0.5804 0.5758 -0.5758
vn -0.5804 -0.5758 -0.5758
vn -0.5804 -0.5758 0.5758
vn -0.5804 0.5758 0.5758
vn 0.5773 0.5774 -0.5773
vn 0.5773 -0.5774 -0.5773
vn 0.5773 -0.5774 0.5773
vn 0.5773 0.5774 0.5773
vn -0.7071 -0.7071 -0.0000
vn -0.7071 -0.0000 0.7071
vn -0.7071 0.7071 -0.0000
vn -0.7071 -0.0000 -0.7071
vn -0.0000 -0.7071 -0.7071
vn -0.0000 0.7071 -0.7071
vn 0.7730 -0.0000 -0.6344
vn 0.6438 -0.7652 -0.0000
vn 0.6438 0.7652 -0.0000
vn 0.7730 -0.0000 0.6344
vn -0.0000 -0.7071 0.7071
vn -0.0000 0.7071 0.7071
vn -0.7129 -0.0000 -0.7013
vn -0.7041 -0.7101 -0.0000
vn -0.7041 0.7101 -0.0000
vn -0.7129 -0.0000 0.7013
vn 0.7071 -0.0000 -0.7071
vn 0.7071 -0.7071 -0.0000
vn 0.7071 0.7071 -0.0000
vn 0.7071 -0.0000 0.7071
vt 0.617143 0.246324
vt 0.382857 0.246324
vt 0.150000 0.500368
vt 0.350000 0.500368
vt 0.350000 0.625000
vt 0.150000 0.625000
vt 0.530556 0.701581
vt 0.469444 0.701581
vt 0.530556 0.701581
vt 0.650000 0.625000
vt 0.850000 0.625000
vt 0.850000 0.749632
vt 0.650000 0.749632
vt 0.375714 0.000368
vt 0.624286 0.000368
vt 0.618571 0.003309
vt 0.381429 0.003309
vt 0.624286 0.000368
vt 0.624286 0.125000
vt 0.618571 0.125000
vt 0.375714 0.775000
vt 0.624286 0.775000
vt 0.624286 0.975000
vt 0.375714 0.975000
vt 0.624143 0.749559
vt 0.375857 0.749559
vt 0.468215 0.702022
vt 0.531785 0.702022
vt 0.375714 0.249632
vt 0.375714 0.125000
vt 0.381429 0.125000
vt 0.381429 0.246691
vt 0.150000 0.625000
vt 0.350000 0.749632
vt 0.150000 0.749632
vt 0.469444 0.548419
vt 0.530556 0.548419
vt 0.530556 0.548419
vt 0.382143 0.125000
vt 0.382143 0.004044
vt 0.382143 0.245956
vt 0.617857 0.004044
vt 0.617857 0.125000
vt 0.617857 0.004044
vt 0.375863 0.625000
vt 0.375857 0.500441
vt 0.468215 0.547978
vt 0.468208 0.625000
vt 0.375857 0.500441
vt 0.624143 0.500441
vt 0.531785 0.547978
vt 0.468215 0.547978
vt 0.375857 0.749559
vt 0.624143 0.500441
vt 0.624137 0.625000
vt 0.531792 0.625000
vt 0.469370 0.548419
vt 0.530631 0.548419
vt 0.530630 0.548419
vt 0.469072 0.625000
vt 0.469072 0.548791
vt 0.469072 0.548790
vt 0.469072 0.701210
vt 0.469072 0.701210
vt 0.530928 0.548791
vt 0.530928 0.625000
vt 0.469072 0.701244
vt 0.469072 0.625000
vt 0.469072 0.701244
vt 0.530928 0.548419
vt 0.530928 0.548419
vt 0.469072 0.701581
vt 0.530928 0.701581
vt 0.530631 0.701581
vt 0.469370 0.701581
vt 0.469369 0.701581
vt 0.469369 0.548756
vt 0.530631 0.548756
vt 0.530631 0.625000
vt 0.469369 0.625000
vt 0.530928 0.548756
vt 0.530928 0.548756
vt 0.469072 0.548756
vt 0.469072 0.548756
vt 0.469072 0.625000
vt 0.530928 0.701244
vt 0.530928 0.701244
vt 0.530928 0.625000
vt 0.469370 0.625000
vt 0.530631 0.701244
vt 0.469369 0.701244
vt 0.469072 0.548419
vt 0.469072 0.548419
vt 0.624137 0.625000
vt 0.624143 0.749559
vt 0.531792 0.625000
vt 0.382857 0.003676
vt 0.617143 0.003676
vt 0.617143 0.003676
vt 0.382857 0.004044
vt 0.617143 0.004044
vt 0.617143 0.125000
vt 0.382857 0.125000
vt 0.382857 0.125000
vt 0.617143 0.125000
vt 0.617143 0.245956
vt 0.382857 0.245956
vt 0.375714 0.275000
vt 0.624286 0.275000
vt 0.624286 0.475000
vt 0.375714 0.475000
vt 0.624286 0.249632
vt 0.618571 0.246691
vt 0.624286 0.125000
vt 0.650000 0.500368
vt 0.850000 0.500368
vt 0.530928 0.701210
vt 0.530928 0.701210
vt 0.617857 0.245956
vt 0.150000 0.750000
vt 0.125000 0.749632
vt 0.624286 0.000000
vt 0.624643 0.000184
vt 0.624286 0.000368
vt 0.375714 0.250000
vt 0.375357 0.249816
vt 0.625000 0.249632
vt 0.624643 0.249816
vt 0.624286 0.249632
vt 0.375000 0.775000
vt 0.375599 0.750000
vt 0.625000 0.749632
vt 0.624672 0.749831
vt 0.350000 0.500000
vt 0.375000 0.500448
vt 0.625000 0.500368
vt 0.624672 0.500169
vt 0.125000 0.625000
vt 0.375714 0.000000
vt 0.625000 0.125000
vt 0.150000 0.500000
vt 0.625000 0.275000
vt 0.625000 0.475000
vt 0.350000 0.750000
vt 0.625000 0.775000
vt 0.625000 0.975000
vt 0.125000 0.500368
vt 0.625000 0.000368
vt 0.375714 0.000368
s 0
usemtl Glass
f 33/1/1 34/2/1 44/2/1 47/1/1
f 8/3/2 19/4/2 102/5/2 98/6/2
f 57/7/1 58/8/1 67/8/1 71/9/1
f 104/10/3 100/11/3 5/12/3 16/13/3
f 3/14/4 6/15/4 29/16/4 27/17/4
f 6/18/4 99/19/4 108/20/4 29/16/4
f 13/21/1 17/22/1 4/23/1 2/24/1
f 18/25/5 15/26/5 59/27/5 56/28/5
f 9/29/4 97/30/4 106/31/4 35/32/4
f 98/33/2 102/5/2 14/34/2 1/35/2
f 49/36/6 52/37/6 61/38/6 66/36/6
f 105/39/3 26/40/3 39/40/3 110/39/3
f 36/41/3 105/39/3 110/39/3 45/41/3
f 30/42/2 107/43/2 112/43/2 42/44/2
f 101/45/5 21/46/5 51/47/5 114/48/5
f 21/49/5 23/50/5 53/51/5 51/52/5
f 15/53/5 101/45/5 114/48/5 59/27/5
f 23/54/5 103/55/5 116/56/5 53/51/5
f 76/57/6 73/58/6 86/59/6 88/57/6
f 113/60/2 50/61/2 65/62/2 118/60/2
f 60/63/2 113/60/2 118/60/2 68/64/2
f 54/65/3 115/66/3 120/66/3 62/65/3
f 81/67/2 121/68/2 126/60/2 93/69/2
f 63/70/4 119/66/4 124/66/4 74/71/4
f 69/72/4 117/60/4 122/60/4 80/72/4
f 72/73/4 69/72/4 80/72/4 83/73/4
f 84/74/1 79/75/1 92/76/1 95/74/1
f 89/77/5 85/78/5 127/79/5 125/80/5
f 75/81/3 123/66/3 128/66/3 87/82/3
f 121/60/2 77/83/2 90/84/2 126/85/2
f 123/66/3 82/86/3 94/87/3 128/88/3
f 125/89/5 127/79/5 96/90/5 91/91/5
f 119/66/4 72/73/4 83/73/4 124/66/4
f 64/92/4 63/71/4 74/70/4 78/93/4
f 117/60/4 64/93/4 78/92/4 122/60/4
f 103/94/5 18/95/5 56/28/5 116/96/5
f 25/97/6 28/98/6 41/99/6 37/97/6
f 38/100/4 40/101/4 111/102/4 109/103/4
f 109/104/4 111/105/4 48/106/4 43/107/4
f 7/108/6 11/109/6 24/110/6 20/111/6
f 12/112/4 9/29/4 35/32/4 32/113/4
f 99/114/4 12/112/4 32/113/4 108/20/4
f 22/115/3 10/116/3 100/11/3 104/10/3
f 115/66/3 55/117/3 70/118/3 120/66/3
f 107/43/2 31/119/2 46/119/2 112/43/2
f 1/35/7 2/120/7 3/121/7
f 4/122/8 5/123/8 6/124/8
f 7/125/9 8/126/9 9/29/9
f 10/127/10 11/128/10 12/129/10
f 13/21/11 14/130/11 15/131/11
f 16/132/12 17/133/12 18/95/12
f 19/4/13 20/134/13 21/135/13
f 22/136/14 23/54/14 24/137/14
f 25/97/15 26/40/15 27/17/15
f 28/98/16 29/16/16 30/42/16
f 31/119/17 32/113/17 33/1/17
f 34/2/18 35/32/18 36/41/18
f 37/97/10 38/100/10 39/40/10
f 40/101/9 41/99/9 42/44/9
f 43/107/8 44/2/8 45/41/8
f 46/119/7 47/1/7 48/106/7
f 49/36/19 50/61/19 51/52/19
f 52/37/20 53/51/20 54/65/20
f 55/117/21 56/28/21 57/7/21
f 58/8/22 59/27/22 60/63/22
f 61/38/23 62/65/23 63/71/23
f 64/93/24 65/62/24 66/36/24
f 67/8/25 68/64/25 69/72/25
f 70/118/26 71/9/26 72/73/26
f 73/58/27 74/71/27 75/81/27
f 76/57/28 77/83/28 78/93/28
f 79/75/29 80/72/29 81/67/29
f 82/86/30 83/73/30 84/74/30
f 85/78/31 86/59/31 87/82/31
f 88/57/32 89/77/32 90/84/32
f 91/91/33 92/76/33 93/69/33
f 94/87/34 95/74/34 96/90/34
f 98/33/35 1/35/35 3/121/35 97/138/35
f 2/139/36 4/122/36 6/15/36 3/14/36
f 100/140/37 10/127/37 12/112/37 99/114/37
f 11/109/38 7/108/38 9/29/38 12/112/38
f 19/4/39 8/3/39 7/141/39 20/134/39
f 10/142/40 22/143/40 24/110/40 11/109/40
f 23/50/41 21/49/41 20/111/41 24/110/41
f 102/5/42 19/4/42 21/46/42 101/45/42
f 104/10/43 16/13/43 18/95/43 103/94/43
f 17/22/44 13/21/44 15/26/44 18/25/44
f 1/35/45 14/34/45 13/144/45 2/120/45
f 16/145/46 5/146/46 4/23/46 17/22/46
f 27/17/38 29/16/38 28/98/38 25/97/38
f 106/31/37 27/17/37 26/40/37 105/39/37
f 108/20/35 32/113/35 31/119/35 107/43/35
f 32/113/36 35/32/36 34/2/36 33/1/36
f 37/97/38 41/99/38 40/101/38 38/100/38
f 110/39/37 39/40/37 38/100/37 109/103/37
f 112/43/35 46/119/35 48/106/35 111/105/35
f 47/1/36 44/2/36 43/107/36 48/106/36
f 33/1/45 47/1/45 46/119/45 31/119/45
f 41/99/39 28/98/39 30/42/39 42/44/39
f 39/40/40 26/40/40 25/97/40 37/97/40
f 36/41/46 45/41/46 44/2/46 34/2/46
f 52/37/41 49/36/41 51/52/41 53/51/41
f 114/48/42 51/47/42 50/61/42 113/60/42
f 116/96/43 56/28/43 55/117/43 115/66/43
f 56/28/44 59/27/44 58/8/44 57/7/44
f 63/71/47 64/92/47 66/36/47 61/38/47
f 118/60/48 65/62/48 64/93/48 117/60/48
f 120/66/49 70/118/49 72/73/49 119/66/49
f 71/9/50 67/8/50 69/72/50 72/73/50
f 57/7/46 71/9/46 70/118/46 55/117/46
f 61/38/40 52/37/40 54/65/40 62/65/40
f 65/62/39 50/61/39 49/36/39 66/36/39
f 60/63/45 68/64/45 67/8/45 58/8/45
f 73/58/47 76/57/47 78/93/47 74/70/47
f 122/60/48 78/92/48 77/83/48 121/60/48
f 124/66/49 83/73/49 82/86/49 123/66/49
f 83/73/50 80/72/50 79/75/50 84/74/50
f 85/78/51 89/77/51 88/57/51 86/59/51
f 126/85/52 90/84/52 89/77/52 125/80/52
f 128/88/53 94/87/53 96/90/53 127/79/53
f 95/74/54 92/76/54 91/91/54 96/90/54
f 81/67/45 93/69/45 92/76/45 79/75/45
f 94/87/46 82/86/46 84/74/46 95/74/46
f 76/57/39 88/57/39 90/84/39 77/83/39
f 86/59/40 73/58/40 75/81/40 87/82/40
f 8/3/35 98/6/35 97/138/35 9/147/35
f 5/148/37 100/140/37 99/19/37 6/18/37
f 14/34/42 102/5/42 101/45/42 15/53/42
f 22/115/43 104/10/43 103/55/43 23/54/43
f 35/32/37 106/31/37 105/39/37 36/41/37
f 29/16/35 108/20/35 107/43/35 30/42/35
f 45/41/37 110/39/37 109/104/37 43/107/37
f 42/44/35 112/43/35 111/102/35 40/101/35
f 59/27/42 114/48/42 113/60/42 60/63/42
f 53/51/43 116/56/43 115/66/43 54/65/43
f 68/64/48 118/60/48 117/60/48 69/72/48
f 62/65/49 120/66/49 119/66/49 63/70/49
f 80/72/48 122/60/48 121/68/48 81/67/48
f 74/71/49 124/66/49 123/66/49 75/81/49
f 93/69/52 126/60/52 125/89/52 91/91/52
f 87/82/53 128/66/53 127/79/53 85/78/53
f 97/30/4 3/149/4 27/17/4 106/31/4
