# Blender 4.0.2
# www.blender.org
mtllib wall1.mtl
o Cube.013_Cube.001
v 3.000000 0.000000 2.800000
v 3.000000 -0.000000 -1.600000
v 3.000000 0.000000 3.000000
v 3.000000 -0.000000 -1.800000
v 3.200000 0.000000 2.800000
v 3.200000 -0.000000 -1.600000
v 3.200000 0.000000 3.000000
v 3.200000 -0.000000 -1.800000
v 3.000000 2.800000 -1.600000
v 3.000000 2.800000 2.800000
v 3.000000 2.800000 3.000000
v 3.000000 2.800000 -1.800000
v 3.200000 2.800000 -1.600000
v 3.200000 2.800000 2.800000
v 3.200000 2.800000 3.000000
v 3.200000 2.800000 -1.800000
v 3.000000 0.000000 1.900001
v 3.200000 0.000000 1.900001
v 3.000000 2.800000 1.900001
v 3.200000 2.800000 1.900001
v 3.000000 0.000000 2.700000
v 3.200000 0.000000 2.700000
v 3.000000 2.800000 2.700000
v 3.200000 2.800000 2.700000
v 3.000000 2.500000 -1.600000
v 3.000000 2.500000 2.800000
v 3.200000 2.500000 -1.600000
v 3.200000 2.500000 2.800000
v 3.200000 2.500000 3.000000
v 3.000000 2.500000 3.000000
v 3.200000 2.500000 -1.800000
v 3.000000 2.500000 -1.800000
v 3.200000 2.500000 1.900001
v 3.000000 2.500000 1.900001
v 3.200000 2.500000 2.700000
v 3.000000 2.500000 2.700000
v 3.100000 0.000000 1.900001
v 3.100000 0.000000 2.700000
v 3.100000 2.500000 1.900001
v 3.100000 2.500000 2.700000
v 3.190000 0.010000 2.800000
v 3.010000 0.010000 2.800000
v 3.010000 0.010000 2.990000
v 3.190000 0.000000 2.700000
v 3.008856 0.010691 2.710690
v 3.190000 0.010000 -1.790000
v 3.010000 0.010000 -1.790000
v 3.010000 0.010000 -1.600000
v 3.010000 2.790000 2.990000
v 3.010000 2.790000 2.800000
v 3.190000 2.790000 2.800000
v 3.010738 2.789262 2.695730
v 3.189262 2.789262 2.695730
v 3.010000 2.790000 -1.600000
v 3.010000 2.790000 -1.790000
v 3.190000 2.790000 -1.790000
v 3.010000 2.500000 -1.600000
v 3.010000 2.500000 -1.790000
v 3.010000 2.500000 2.800000
v 3.015000 2.495000 2.710000
v 3.190000 2.500000 -1.600000
v 3.182857 2.495714 1.891429
v 3.189262 2.789262 1.904270
v 3.010000 2.500000 2.990000
v 3.182222 2.502223 2.800000
v 3.190000 2.500000 2.990000
v 3.190000 2.790000 2.990000
v 3.190000 2.500000 -1.790000
v 3.190000 2.790000 -1.600000
v 3.185000 2.492500 2.707500
v 3.015000 2.495000 1.890001
v 3.010738 2.789262 1.904270
v 3.190000 0.010000 -1.600000
v 3.008856 0.010690 1.889311
v 3.100000 0.000000 1.910001
v 3.106460 2.487080 1.889727
v 3.190000 0.000000 1.900001
v 3.190000 0.010000 2.990000
v 3.096296 0.000000 2.633333
v 3.106945 2.489583 2.711045
vn -0.0000 -1.0000 -0.0000
vn -0.0000 1.0000 -0.0000
vn -1.0000 -0.0000 -0.0000
vn 1.0000 -0.0000 -0.0000
vn -0.0000 -0.0000 -1.0000
vn -0.0000 -0.0000 1.0000
vn 0.0593 0.9982 0.0070
vn -0.0000 -1.0000 0.0071
vn 0.9984 0.0171 0.0545
vn -0.9998 0.0219 -0.0020
vn -0.9992 -0.0000 0.0409
vn -0.9999 0.0145 0.0027
vn 1.0000 -0.0000 -0.0014
vn -0.0000 -1.0000 -0.0002
vn -0.0000 1.0000 -0.0002
vn -0.9991 0.0270 -0.0328
vn 0.9999 0.0145 -0.0000
vn -0.0037 -0.0081 -1.0000
vn -1.0000 -0.0031 0.0003
vn 1.0000 -0.0000 0.0003
vn -1.0000 -0.0020 -0.0000
vn -1.0000 -0.0029 -0.0000
vn 0.9999 -0.0025 -0.0128
vn 1.0000 -0.0026 0.0051
vn 0.0465 -0.0314 0.9984
vn 0.0375 -0.9993 0.0030
vn -0.0000 0.9950 -0.0995
vn 1.0000 -0.0000 0.0071
vn -1.0000 -0.0000 -0.0002
vn -0.9996 0.0270 -0.0000
vn -0.9998 0.0218 -0.0000
vn 0.9999 0.0145 -0.0002
vn 0.0587 0.9983 0.0029
vn -0.9999 0.0146 0.0070
vn 0.2213 -0.0003 -0.9752
vn -0.1104 -0.0037 -0.9939
vn 0.0174 0.0433 -0.9989
vn 0.0012 0.0485 -0.9988
vn 0.0232 -0.0082 -0.9997
vn -0.9996 -0.0019 -0.0298
vn 1.0000 -0.0025 -0.0014
vn -1.0000 -0.0029 0.0026
vn -0.9992 -0.0031 0.0409
vn -1.0000 -0.0000 -0.0020
vn 0.9985 -0.0000 0.0555
vn 1.0000 -0.0043 -0.0006
vn 0.6625 -0.0014 0.7491
vn -0.0085 0.0483 0.9988
vn 0.0439 0.0390 0.9983
vn -0.5797 -0.0036 0.8148
vn -0.0132 -0.0311 0.9994
vn -0.0863 -0.9963 -0.0000
vn 0.0419 -0.9935 0.1057
vn -0.0589 -0.9983 0.0031
vn 0.1124 -0.9937 -0.0042
vn 0.4964 0.1406 -0.8567
vn 0.4964 0.1405 -0.8567
vn -0.0000 0.7071 0.7071
vn -1.0000 -0.0001 -0.0000
vn 1.0000 0.0001 -0.0000
vn -0.3738 0.8818 0.2876
vn -0.3737 0.8818 0.2877
vn 0.1371 0.9706 0.1979
vn 0.1370 0.9706 0.1980
vn 0.1371 0.9706 0.1980
vn 0.0985 -0.1451 -0.9845
vn 0.0984 -0.1451 -0.9845
vn -0.8845 0.2785 0.3744
vn -0.8494 0.2688 -0.4541
vn 0.4913 0.1389 0.8598
vn 0.4913 0.1390 0.8598
vn 0.4964 0.1406 -0.8566
vn 0.4964 0.1405 -0.8566
vn -0.3737 0.8818 0.2876
vn -0.8845 0.2785 0.3743
vn -0.8494 0.2689 -0.4541
vn -0.0000 0.7071 -0.7071
vn 0.0001 -0.0000 1.0000
vn -0.0001 -0.0000 -1.0000
vt 0.625000 0.750000
vt 0.625000 0.687500
vt 0.625000 0.500000
vt 0.625000 0.625000
vt 0.000000 0.000000
s 0
usemtl LACA.001
f 5/1/1 3/1/1 1/1/1
f 22/2/1 1/1/1 21/2/1
f 8/3/1 2/3/1 4/3/1
f 11/1/2 14/1/2 10/1/2
f 10/1/2 24/2/2 23/2/2
f 9/3/2 16/3/2 12/3/2
f 25/3/3 12/3/3 32/3/3
f 26/1/3 23/2/3 36/2/3
f 27/3/4 20/4/4 33/4/4
f 30/1/3 10/1/3 26/1/3
f 28/1/4 15/1/4 29/1/4
f 31/3/4 13/3/4 27/3/4
f 32/3/5 16/3/5 31/3/5
f 29/1/6 11/1/6 30/1/6
f 33/4/4 24/2/4 35/2/4
f 34/4/3 9/3/3 25/3/3
f 19/4/2 13/3/2 9/3/2
f 6/3/1 17/4/1 2/3/1
f 35/2/4 14/1/4 28/1/4
f 36/2/3 19/4/3 34/4/3
f 23/2/2 20/4/2 19/4/2
f 37/5/6 39/5/6 34/4/6
f 22/2/4 28/1/4 5/1/4
f 17/4/3 25/3/3 2/3/3
f 18/4/4 35/2/4 22/2/4
f 7/1/6 30/1/6 3/1/6
f 4/3/5 31/3/5 8/3/5
f 8/3/4 27/3/4 6/3/4
f 5/1/4 29/1/4 7/1/4
f 3/1/3 26/1/3 1/1/3
f 6/3/4 33/4/4 18/4/4
f 1/1/3 36/2/3 21/2/3
f 2/3/3 32/3/3 4/3/3
f 38/2/3 39/4/3 37/4/3
f 38/5/5 40/5/5 35/2/5
f 39/5/2 40/5/2 35/2/2
f 5/1/1 7/1/1 3/1/1
f 22/2/1 5/1/1 1/1/1
f 8/3/1 6/3/1 2/3/1
f 11/1/2 15/1/2 14/1/2
f 10/1/2 14/1/2 24/2/2
f 9/3/2 13/3/2 16/3/2
f 25/3/3 9/3/3 12/3/3
f 26/1/3 10/1/3 23/2/3
f 27/3/4 13/3/4 20/4/4
f 30/1/3 11/1/3 10/1/3
f 28/1/4 14/1/4 15/1/4
f 31/3/4 16/3/4 13/3/4
f 32/3/5 12/3/5 16/3/5
f 29/1/6 15/1/6 11/1/6
f 33/4/4 20/4/4 24/2/4
f 34/4/3 19/4/3 9/3/3
f 19/4/2 20/4/2 13/3/2
f 6/3/1 18/4/1 17/4/1
f 35/2/4 24/2/4 14/1/4
f 36/2/3 23/2/3 19/4/3
f 23/2/2 24/2/2 20/4/2
f 34/4/6 17/4/6 37/5/6
f 37/5/6 18/4/6 33/4/6
f 33/4/6 20/4/6 39/5/6
f 39/5/6 19/4/6 34/4/6
f 37/5/6 33/4/6 39/5/6
f 22/2/4 35/2/4 28/1/4
f 17/4/3 34/4/3 25/3/3
f 18/4/4 33/4/4 35/2/4
f 7/1/6 29/1/6 30/1/6
f 4/3/5 32/3/5 31/3/5
f 8/3/4 31/3/4 27/3/4
f 5/1/4 28/1/4 29/1/4
f 3/1/3 30/1/3 26/1/3
f 6/3/4 27/3/4 33/4/4
f 1/1/3 26/1/3 36/2/3
f 2/3/3 25/3/3 32/3/3
f 38/2/3 40/2/3 39/4/3
f 38/5/5 21/2/5 36/2/5
f 36/2/5 23/2/5 40/5/5
f 40/5/5 24/2/5 35/2/5
f 35/2/5 22/2/5 38/5/5
f 38/5/5 36/2/5 40/5/5
f 39/5/2 34/4/2 36/2/2
f 40/5/2 28/1/2 35/2/2
f 39/5/2 36/2/2 40/5/2
f 35/2/2 33/4/2 39/5/2
f 41/1/2 42/1/2 43/1/2
f 44/2/7 45/2/7 42/1/7
f 46/3/2 47/3/2 48/3/2
f 49/1/1 50/1/1 51/1/1
f 50/1/8 52/2/8 53/2/8
f 54/3/1 55/3/1 56/3/1
f 57/3/4 58/3/4 55/3/4
f 59/1/9 60/2/9 52/2/9
f 61/3/10 62/4/10 63/4/10
f 64/1/4 59/1/4 50/1/4
f 65/1/11 66/1/11 67/1/11
f 68/3/3 61/3/3 69/3/3
f 58/3/6 68/3/6 56/3/6
f 66/1/5 64/1/5 49/1/5
f 62/4/12 70/2/12 53/2/12
f 71/4/13 57/3/13 54/3/13
f 72/4/14 54/3/14 69/3/14
f 73/3/15 48/3/15 74/4/15
f 70/2/16 65/1/16 51/1/16
f 60/2/17 71/4/17 72/4/17
f 52/2/1 72/4/1 63/4/1
f 75/5/18 71/4/18 76/5/18
f 44/2/19 41/1/19 65/1/19
f 74/4/20 48/3/20 57/3/20
f 77/4/21 44/2/21 70/2/21
f 78/1/5 43/1/5 64/1/5
f 47/3/6 46/3/6 68/3/6
f 46/3/3 73/3/3 61/3/3
f 41/1/3 78/1/3 66/1/3
f 43/1/4 42/1/4 59/1/4
f 73/3/22 77/4/22 62/4/22
f 42/1/23 45/2/23 60/2/23
f 48/3/4 47/3/4 58/3/4
f 79/2/24 75/4/24 76/4/24
f 79/5/25 70/2/25 80/5/25
f 76/5/26 70/2/26 80/5/26
f 41/1/2 43/1/2 78/1/2
f 44/2/27 42/1/27 41/1/27
f 46/3/2 48/3/2 73/3/2
f 49/1/1 51/1/1 67/1/1
f 50/1/8 53/2/8 51/1/8
f 54/3/1 56/3/1 69/3/1
f 57/3/4 55/3/4 54/3/4
f 59/1/28 52/2/28 50/1/28
f 61/3/29 63/4/29 69/3/29
f 64/1/4 50/1/4 49/1/4
f 65/1/30 67/1/30 51/1/30
f 68/3/3 69/3/3 56/3/3
f 58/3/6 56/3/6 55/3/6
f 66/1/5 49/1/5 67/1/5
f 62/4/31 53/2/31 63/4/31
f 71/4/32 54/3/32 72/4/32
f 72/4/14 69/3/14 63/4/14
f 73/3/33 74/4/33 77/4/33
f 70/2/34 51/1/34 53/2/34
f 60/2/17 72/4/17 52/2/17
f 52/2/1 63/4/1 53/2/1
f 71/4/35 75/5/35 74/4/35
f 75/5/36 62/4/36 77/4/36
f 62/4/37 76/5/37 63/4/37
f 76/5/38 71/4/38 72/4/38
f 75/5/39 76/5/39 62/4/39
f 44/2/40 65/1/40 70/2/40
f 74/4/41 57/3/41 71/4/41
f 77/4/42 70/2/42 62/4/42
f 78/1/5 64/1/5 66/1/5
f 47/3/6 68/3/6 58/3/6
f 46/3/3 61/3/3 68/3/3
f 41/1/43 66/1/43 65/1/43
f 43/1/4 59/1/4 64/1/4
f 73/3/44 62/4/44 61/3/44
f 42/1/45 60/2/45 59/1/45
f 48/3/4 58/3/4 57/3/4
f 79/2/46 76/4/46 80/2/46
f 79/5/47 60/2/47 45/2/47
f 60/2/48 80/5/48 52/2/48
f 80/5/49 70/2/49 53/2/49
f 70/2/50 79/5/50 44/2/50
f 79/5/51 80/5/51 60/2/51
f 76/5/52 60/2/52 71/4/52
f 80/5/53 70/2/53 65/1/53
f 76/5/54 80/5/54 60/2/54
f 70/2/55 76/5/55 62/4/55
f 40/5/56 52/2/57 80/5/57
f 17/4/58 77/4/58 74/4/58
f 38/5/2 44/2/2 79/5/2
f 37/5/59 77/4/3 18/4/60
f 28/1/61 80/5/62 65/1/62
f 21/2/63 79/5/64 45/2/65
f 37/5/66 74/4/66 75/5/67
f 24/2/68 80/5/68 53/2/68
f 22/2/1 77/4/1 18/4/1
f 39/5/69 63/4/69 76/5/69
f 21/2/59 44/2/3 22/2/60
f 38/2/2 75/4/2 79/2/2
f 19/4/70 76/5/71 72/4/70
f 40/5/72 23/2/56 52/2/73
f 17/4/59 18/4/60 77/4/4
f 38/5/59 22/2/60 44/2/4
f 37/5/2 75/5/2 77/4/2
f 28/1/61 40/5/74 80/5/62
f 21/2/65 38/5/65 79/5/65
f 37/5/66 17/4/67 74/4/67
f 24/2/75 40/5/75 80/5/75
f 22/2/1 44/2/1 77/4/1
f 39/5/76 20/4/76 63/4/69
f 21/2/77 45/2/77 44/2/77
f 38/2/78 37/4/79 75/4/5
f 19/4/70 39/5/70 76/5/70
o Cube.013_Cube.002
v 3.000000 2.800000 3.000000
v 3.000000 2.500000 3.000000
v 3.000000 2.800000 2.800000
v 3.000000 2.500000 2.800000
vn 1.0000 -0.0000 -0.0000
vt 0.875000 0.750000
s 0
usemtl LACA.001
f 83/6/80 81/6/80 82/6/80
f 83/6/80 82/6/80 84/6/80
o Cube.013_Cube.003
v 3.000000 2.800000 -1.800000
v 3.000000 2.800000 -1.600000
v 3.000000 2.500000 -1.800000
v 3.000000 2.500000 -1.600000
vn 1.0000 -0.0000 -0.0000
vt 0.875000 0.500000
s 0
usemtl LACA.001
f 87/7/81 85/7/81 86/7/81
f 87/7/81 86/7/81 88/7/81
o Cube.013_Cube.004
v 3.100000 0.349723 1.963533
v 3.100000 0.349723 2.005448
v 3.100000 2.150277 1.963533
v 3.080000 0.349723 1.963533
v 3.080000 2.150277 1.963533
v 3.080000 2.150277 2.005448
v 3.080000 0.349723 2.005448
v 3.100000 2.150277 2.005448
vn -0.0000 1.0000 -0.0000
vn -1.0000 -0.0000 -0.0000
vn -0.0000 -0.0000 1.0000
vn -0.0000 -1.0000 -0.0000
vn 1.0000 -0.0000 -0.0000
vn -0.0000 -0.0000 -1.0000
vt 0.625000 0.625000
vt 0.625000 0.687500
s 0
usemtl LACA.001
f 92/8/82 90/9/82 89/8/82
f 90/9/83 91/8/83 89/8/83
f 93/8/84 89/8/84 91/8/84
f 93/8/84 92/8/84 89/8/84
f 94/9/85 93/8/85 91/8/85
f 93/8/86 94/9/86 95/9/86
f 93/8/86 95/9/86 92/8/86
f 92/8/82 95/9/82 90/9/82
f 95/9/87 94/9/87 96/9/87
f 95/9/87 96/9/87 90/9/87
f 90/9/83 96/9/83 91/8/83
f 94/9/85 91/8/85 96/9/85
o Cube.013_Cube.005
v 2.990000 2.790000 -1.790000
v 2.990000 2.790000 -1.610000
v 2.990000 2.510000 -1.790000
v 2.990000 2.510000 -1.610000
vn -1.0000 -0.0000 -0.0000
vt 0.875000 0.500000
s 0
usemtl LACA.001
f 99/10/88 98/10/88 97/10/88
f 99/10/88 100/10/88 98/10/88
o Cube.013_Cube.006
v 2.990000 2.510000 2.990000
v 2.990000 2.510000 2.810000
v 2.990000 2.790000 2.810000
v 2.990000 2.790000 2.990000
vn -1.0000 -0.0000 -0.0000
vt 0.875000 0.750000
s 0
usemtl LACA.001
f 103/11/89 102/11/89 101/11/89
f 103/11/89 101/11/89 104/11/89
o Cube.013_Cube.007
v 3.110000 0.339723 2.015448
v 3.110000 0.339723 1.953533
v 3.110000 2.160277 1.953533
v 3.070000 0.339723 2.015448
v 3.110000 2.160277 2.015448
v 3.070000 0.339723 1.953533
v 3.070000 2.160277 1.953533
v 3.070000 2.160277 2.015448
vn -0.0000 -1.0000 -0.0000
vn 1.0000 -0.0000 -0.0000
vn -0.0000 -0.0000 1.0000
vn -0.0000 -0.0000 -1.0000
vn -1.0000 -0.0000 -0.0000
vn -0.0000 1.0000 -0.0000
vt 0.625000 0.625000
vt 0.625000 0.687500
s 0
usemtl LACA.001
f 110/12/90 106/12/90 105/13/90
f 105/13/91 106/12/91 107/12/91
f 105/13/91 107/12/91 109/13/91
f 110/12/90 105/13/90 108/13/90
f 108/13/92 105/13/92 109/13/92
f 111/12/93 106/12/93 110/12/93
f 111/12/94 110/12/94 108/13/94
f 111/12/94 108/13/94 112/13/94
f 112/13/95 107/12/95 111/12/95
f 111/12/93 107/12/93 106/12/93
f 108/13/92 109/13/92 112/13/92
f 112/13/95 109/13/95 107/12/95
o Cube.013_Cube.008
v -0.498257 2.491329 2.993033
v -0.498257 2.491329 2.814553
v -0.498257 2.785364 2.993033
v 1.501743 2.491329 2.993033
v 1.501743 2.491329 2.814553
v 1.501743 2.785364 2.993033
v 2.998314 2.491329 2.993033
v 2.998314 2.491329 2.814553
v 2.998314 2.785364 2.993033
v 2.998314 2.785364 2.814553
v 1.501743 2.785364 2.814553
v -0.498257 2.785364 2.814553
vn -0.0000 -1.0000 -0.0000
vn -1.0000 -0.0000 -0.0000
vn -0.0000 -0.0000 1.0000
vn 1.0000 -0.0000 -0.0000
vn -0.0000 1.0000 -0.0000
vn -0.0000 -0.0000 -1.0000
vt 0.125000 0.500000
vt 0.375000 0.500000
vt 0.375000 0.750000
vt 0.125000 0.750000
vt 0.375000 0.000000
vt 0.625000 0.000000
vt 0.625000 0.250000
vt 0.375000 0.250000
vt 0.625000 0.750000
vt 0.625000 1.000000
vt 0.375000 1.000000
vt 0.625000 0.500000
vt 0.875000 0.500000
vt 0.875000 0.750000
s 0
usemtl LACA.001
f 114/14/96 117/15/96 116/16/96 113/17/96
f 113/18/97 115/19/97 124/20/97 114/21/97
f 116/16/98 118/22/98 115/23/98 113/24/98
f 116/16/96 117/15/96 120/15/96 119/16/96
f 118/22/98 116/16/98 119/16/98 121/22/98
f 120/15/99 122/25/99 121/22/99 119/16/99
f 123/25/100 118/22/100 121/22/100 122/25/100
f 117/15/101 123/25/101 122/25/101 120/15/101
f 123/25/100 124/26/100 115/27/100 118/22/100
f 114/21/101 124/20/101 123/25/101 117/15/101
o Cube.013_Cube.009
v -0.498257 2.491329 -1.617900
v -0.498257 2.491329 -1.796379
v -0.498257 2.785364 -1.617899
v 1.501743 2.491329 -1.617900
v 1.501743 2.491329 -1.796379
v 1.501743 2.785364 -1.617899
v 2.998314 2.491329 -1.617900
v 2.998314 2.491329 -1.796379
v 2.998314 2.785364 -1.617899
v 2.998314 2.785364 -1.796379
v 1.501743 2.785364 -1.796379
v -0.498257 2.785364 -1.796379
vn -0.0000 -1.0000 -0.0000
vn -1.0000 -0.0000 -0.0000
vn -0.0000 -0.0000 1.0000
vn 1.0000 -0.0000 -0.0000
vn -0.0000 1.0000 -0.0000
vn -0.0000 -0.0000 -1.0000
vt 0.125000 0.500000
vt 0.375000 0.500000
vt 0.375000 0.750000
vt 0.125000 0.750000
vt 0.375000 0.000000
vt 0.625000 0.000000
vt 0.625000 0.250000
vt 0.375000 0.250000
vt 0.625000 0.750000
vt 0.625000 1.000000
vt 0.375000 1.000000
vt 0.625000 0.500000
vt 0.875000 0.500000
vt 0.875000 0.750000
s 0
usemtl LACA.002
f 126/28/102 129/29/102 128/30/102 125/31/102
f 125/32/103 127/33/103 136/34/103 126/35/103
f 128/30/104 130/36/104 127/37/104 125/38/104
f 128/30/102 129/29/102 132/29/102 131/30/102
f 130/36/104 128/30/104 131/30/104 133/36/104
f 132/29/105 134/39/105 133/36/105 131/30/105
f 135/39/106 130/36/106 133/36/106 134/39/106
f 129/29/107 135/39/107 134/39/107 132/29/107
f 135/39/106 136/40/106 127/41/106 130/36/106
f 126/35/107 136/34/107 135/39/107 129/29/107
